<?xml version="1.0" standalone="no"?>
<!DOCTYPE svg PUBLIC "-//W3C//DTD SVG 1.1//EN" "http://www.w3.org/Graphics/SVG/1.1/DTD/svg11.dtd" >
<svg xmlns="http://www.w3.org/2000/svg" xmlns:xlink="http://www.w3.org/1999/xlink" version="1.1">
<metadata></metadata>
<defs>
<font id="argent_cfdemi_bold" horiz-adv-x="1400" >
<font-face units-per-em="2048" ascent="1638" descent="-410" />
<missing-glyph horiz-adv-x="450" />
<glyph unicode="&#xfb01;" horiz-adv-x="1331" d="M31 0v78q60 7 92.5 24t32.5 52v784h-76q-27 0 -27 29v30q0 29 27 29h76q3 102 38.5 180t95 125.5t135 71.5t163.5 24q151 0 249.5 -57t98.5 -143q0 -111 -111 -111q-39 0 -62 23.5t-34 57t-23 66.5t-41 56.5t-77 23.5q-50 0 -82.5 -25t-48 -73.5t-20.5 -98t-5 -120.5h182 q27 0 27 -29v-30q0 -29 -27 -29h-182v-784q0 -36 33.5 -52.5t95.5 -23.5v-78q-265 9 -530 0zM758 856v78q90 15 166.5 45t121.5 52t68 22q60 0 60 -66q0 -33 -6.5 -123.5t-6.5 -161.5v-548q0 -36 33.5 -52.5t95.5 -23.5v-78q-265 9 -530 0v78q60 7 92.5 24t32.5 52v616 q0 54 -32 72.5t-95 13.5z" />
<glyph unicode="&#xfb02;" horiz-adv-x="1296" d="M31 0v78q60 7 92.5 24t32.5 52v784h-88q-27 0 -27 29v30q0 29 27 29h88q6 198 135 299.5t352 101.5q230 0 356.5 -99t126.5 -302v-801q0 -54 32.5 -72t96.5 -12v-75q-84 -18 -162 -43t-120 -39.5t-62 -14.5q-33 0 -47 16t-14 52v1010q0 51 -3.5 89t-16.5 79t-34.5 67.5 t-60.5 43.5t-92 17q-54 0 -93.5 -18.5t-61.5 -46t-35 -72t-16.5 -84.5t-4.5 -96h191q26 0 26 -29v-30q0 -29 -26 -29h-191v-784q0 -36 33.5 -52.5t95.5 -23.5v-78q-265 9 -530 0z" />
<glyph horiz-adv-x="0" />
<glyph horiz-adv-x="682" />
<glyph unicode=" "  horiz-adv-x="450" />
<glyph unicode="&#x09;" horiz-adv-x="450" />
<glyph unicode="&#xa0;" horiz-adv-x="450" />
<glyph unicode="!" horiz-adv-x="532" d="M106 121q0 57 41.5 98t98.5 41t98 -41t41 -98q0 -58 -41 -99.5t-98 -41.5t-98.5 41.5t-41.5 99.5zM113 1137q0 75 45.5 121.5t107.5 46.5t108 -46.5t46 -121.5q0 -57 -16 -136t-35.5 -151t-36.5 -183t-19 -223h-94q-3 142 -29.5 278.5t-51.5 241t-25 173.5z" />
<glyph unicode="&#x22;" horiz-adv-x="706" d="M76 1174l59 -293q3 -20 17 -32.5t36 -12.5q43 0 50 45l59 293q11 59 -23.5 95t-85.5 36q-55 0 -89 -35.5t-23 -95.5zM391 1174l60 -293q3 -20 17 -32.5t36 -12.5q42 0 49 45l59 293q11 59 -23 95t-85 36q-55 0 -89.5 -35.5t-23.5 -95.5z" />
<glyph unicode="#" horiz-adv-x="1208" d="M72 352l10 113q3 31 33 31h186l74 284h-191q-31 0 -28 31l10 113q3 30 33 30h221l108 422h179l-107 -422h186l109 422h178l-106 -422h151q32 0 29 -30l-10 -113q-3 -31 -33 -31h-180l-72 -284h182q32 0 29 -31l-10 -113q-3 -30 -33 -30h-211l-96 -383h-189l99 383h-183 l-96 -383h-188l98 383h-154q-31 0 -28 30zM485 496h183l73 284h-184z" />
<glyph unicode="$" horiz-adv-x="1032" d="M51 311h68q26 0 39 -8t20 -31q33 -96 125 -152.5t209 -56.5q85 0 140 53.5t55 141.5q0 84 -63 147.5t-210 131.5q-55 26 -95 47t-85 50.5t-76 61t-57.5 71t-39.5 87.5t-13 104q0 154 113.5 250.5t283.5 96.5h6v106h90v-113q46 -7 99.5 -25t70.5 -18q41 0 49 33h82 l17 -295l-52 2q-26 2 -39.5 11t-25.5 34q-38 88 -105 133.5t-145 45.5q-89 0 -139.5 -49.5t-50.5 -122.5q0 -85 56.5 -137.5t184.5 -110.5q145 -65 201 -100q213 -139 217 -347q0 -74 -26.5 -138t-69.5 -108t-98 -75t-111.5 -45.5t-110.5 -14.5h-4v-96h-90v102 q-69 11 -146.5 42.5t-99.5 31.5q-55 0 -67 -51h-86z" />
<glyph unicode="%" horiz-adv-x="1378" d="M92 1024q0 117 69.5 199t182.5 82q115 0 184.5 -82t69.5 -199t-69.5 -200t-184.5 -83q-113 0 -182.5 83t-69.5 200zM213 -10l844 1313h143l-842 -1313h-145zM252 1024q0 -209 92 -209q94 0 94 209q0 207 -94 207q-92 0 -92 -207zM780 260q0 117 69.5 199t182.5 82 q115 0 184.5 -82t69.5 -199t-69.5 -200t-184.5 -83q-113 0 -182.5 83t-69.5 200zM940 260q0 -209 92 -209q94 0 94 209q0 207 -94 207q-92 0 -92 -207z" />
<glyph unicode="&#x26;" horiz-adv-x="1490" d="M41 403q0 70 23.5 128.5t61.5 97t85.5 64.5t95.5 36t92 6q-108 18 -182 92.5t-74 178.5q0 128 119.5 213.5t302.5 85.5q66 0 125.5 -16.5t110 -49.5t80.5 -90.5t30 -132.5q0 -89 -52 -154t-134 -65q-53 0 -81 25t-28 67q0 26 13 49t29 39.5t29 48t13 70.5q0 54 -36 93.5 t-95 39.5q-39 0 -69 -19.5t-47.5 -51.5t-26 -69t-8.5 -77q0 -91 41.5 -168.5t122.5 -104.5l-27 -98l-16 2q-85 9 -142 -60.5t-57 -195.5q0 -89 32.5 -164t105 -124.5t173.5 -49.5q83 0 148 31t103 81t57.5 107t19.5 115q0 79 -30 127.5t-85 48.5q-61 0 -79.5 -51.5 t24.5 -95.5h-96q-70 30 -70 98q0 30 22.5 60t45 47.5t73.5 52.5l244 170q37 26 54.5 39.5t44.5 37.5t40 42.5t23 44.5t10 53q0 62 -43.5 91t-124.5 11q-23 -7 -37 33q-13 37 15 49q82 33 176 33q44 0 88.5 -14.5t84.5 -43t65.5 -76.5t25.5 -108q0 -34 -13 -67t-30.5 -59.5 t-50.5 -54.5t-58 -47t-69.5 -42.5t-68.5 -35.5t-71 -31t-61 -24t-53 -20q134 -18 211.5 -93.5t79.5 -180.5q1 -89 -55 -167.5t-146.5 -130t-199 -81t-214.5 -29.5q-123 0 -233 30t-194 84.5t-133.5 137.5t-49.5 182z" />
<glyph unicode="'" horiz-adv-x="372" d="M76 1174l59 -293q3 -20 17 -32.5t36 -12.5q43 0 50 45l59 293q11 59 -23.5 95t-85.5 36q-55 0 -89 -35.5t-23 -95.5z" />
<glyph unicode="(" horiz-adv-x="669" d="M82 606q0 292 110 535t320 397q17 14 39 14h47q20 0 27.5 -8t-2.5 -18q-148 -150 -224.5 -383t-76.5 -537q0 -610 290 -909q15 -15 12 -26t-22 -11h-51q-22 0 -39 14q-210 154 -320 397t-110 535z" />
<glyph unicode=")" horiz-adv-x="669" d="M44.5 1544q7.5 8 27.5 8h47q22 0 39 -14q210 -154 320 -397t110 -535t-110 -535t-320 -397q-17 -14 -39 -14h-51q-19 0 -22.5 11t11.5 26q291 300 291 909q0 304 -76.5 537t-224.5 383q-10 10 -2.5 18z" />
<glyph unicode="*" horiz-adv-x="649" d="M49 821q44 -56 111 -28l110 137q13 15 2.5 29.5t-30.5 9.5l-166 -35q-55 -44 -27 -113zM49 1149q-29 -69 27 -111l164 -37q22 -5 33.5 9.5t-1.5 29.5l-112 138q-66 28 -111 -29zM242 750q9 -71 82 -80q73 9 82 80l-62 159q-7 20 -20.5 20t-20.5 -20zM242 1225l61 -160 q5 -13 12.5 -18t14.5 0t12 18l64 160q-9 71 -82 80q-73 -9 -82 -80zM376 1010.5q12 -14.5 34 -9.5l163 37q55 43 27 111q-47 56 -111 29l-112 -138q-13 -15 -1 -29.5zM377 959.5q-11 -14.5 2 -29.5l110 -137q65 -27 111 28q27 68 -27 113l-165 35q-20 5 -31 -9.5z" />
<glyph unicode="+" horiz-adv-x="1003" d="M143 487v103h308v307h102v-307h307v-103h-307v-307h-102v307h-308z" />
<glyph unicode="," horiz-adv-x="526" d="M113 115q0 61 42 102t105 41q71 0 112.5 -54.5t41.5 -135.5q0 -90 -38.5 -171t-96.5 -137q-21 -22 -41 -2l-21 23q74 80 74 178q0 15 -4 23q-25 -5 -35 -5q-61 0 -100 41.5t-39 96.5z" />
<glyph unicode="-" horiz-adv-x="696" d="M72 438v150h553v-150h-553z" />
<glyph unicode="." horiz-adv-x="462" d="M92 121q0 57 41 98t98 41t98.5 -41t41.5 -98q0 -58 -41.5 -99.5t-98.5 -41.5t-98 41.5t-41 99.5z" />
<glyph unicode="/" horiz-adv-x="921" d="M92 -164l547 1641h190l-546 -1641h-191z" />
<glyph unicode="0" horiz-adv-x="1243" d="M72 641q0 132 38 251t106.5 211t174 146t232.5 54t232 -54t173 -146t105.5 -211t37.5 -251q0 -134 -37.5 -254.5t-105.5 -214t-173 -148.5t-232 -55q-168 0 -295.5 94.5t-191.5 245.5t-64 332zM373 641q0 -584 250 -584q247 0 247 584q0 576 -247 576q-250 0 -250 -576z " />
<glyph unicode="1" horiz-adv-x="716" d="M92 1106v78q84 10 150 28.5t96.5 34.5t58 28.5t47.5 12.5q64 0 64 -61q0 -28 -6 -125.5t-6 -163.5v-784q0 -36 33.5 -52.5t95.5 -23.5v-78q-265 9 -531 0v78q60 7 92.5 24t32.5 52v878q0 55 -22 67t-105 7z" />
<glyph unicode="2" horiz-adv-x="1089" d="M61 76q183 169 251 239q380 388 380 648q0 124 -48.5 190t-133.5 66q-92 0 -141.5 -63.5t-49.5 -180.5q0 -37 12.5 -70.5t12.5 -60.5q0 -47 -35.5 -79t-93.5 -32q-69 0 -110.5 54t-41.5 135q0 167 121 275t326 108q215 0 338 -105t123 -274q0 -60 -19 -119t-48 -109.5 t-79 -105.5t-97 -97.5t-118 -96t-125.5 -91.5t-134.5 -93q-21 -14 -31 -21h381q76 0 117.5 11.5t63.5 45.5l69 110h88l-77 -313q-6 -23 -24 -35t-42 -12h-827z" />
<glyph unicode="3" horiz-adv-x="1161" d="M86 252q-12 68 16.5 112t94.5 44q33 0 56 -11.5t35.5 -33t20 -43t14.5 -50.5q2 -10 3 -14q8 -32 17 -56t26.5 -52.5t40 -47t59 -31t82.5 -12.5q125 0 190.5 92.5t65.5 231.5q0 118 -48.5 188t-131.5 70q-10 0 -20 -1t-17.5 -2t-19 -4t-17 -4.5t-19.5 -7t-19 -7.5t-23 -9 t-25 -10l-33 86l80 35q109 47 159 116.5t48 167.5q0 92 -42 156t-122 64q-81 0 -125.5 -59t-44.5 -152q0 -41 10.5 -81.5t10.5 -70.5q0 -100 -111 -100q-70 0 -115 52.5t-45 141.5q0 152 118.5 253.5t301.5 101.5q182 0 294 -85t112 -204q0 -198 -281 -297q57 11 114 10 t110 -25t94 -61t65.5 -99t24.5 -138q0 -92 -46 -174t-121.5 -137.5t-172.5 -87.5t-199 -32q-191 0 -316.5 80.5t-148.5 196.5z" />
<glyph unicode="4" horiz-adv-x="1163" d="M72 496l653 809h121v-805h61q42 0 65 9.5t40 43.5l22 45h58l-50 -192q-12 -48 -69 -48h-127v-204q0 -38 32.5 -54t118.5 -22v-78q-295 9 -591 0v78q86 6 118.5 22t32.5 54v204h-448zM168 500h389v479z" />
<glyph unicode="5" horiz-adv-x="1146" d="M76 252q-14 68 15 112t95 44q16 0 29.5 -2.5t24 -9t19 -11.5t15.5 -17t11 -19t9.5 -22t7.5 -22t6.5 -25t6.5 -24q13 -43 25.5 -71t37.5 -61t66 -50t97 -17q126 0 189 96.5t63 252.5t-80.5 253t-202.5 97q-81 0 -152 -36.5t-118 -90.5h-97l56 643h413q76 0 117.5 11.5 t63.5 45.5h133l-54 -203q-12 -47 -65 -47h-551l-31 -372q139 182 385 182q57 0 118.5 -16.5t124 -53t111.5 -88.5t80 -129.5t31 -169.5q0 -135 -77 -241.5t-197 -161t-258 -54.5q-189 0 -316 80.5t-151 196.5z" />
<glyph unicode="6" horiz-adv-x="1146" d="M72 600q0 143 40 269t114 223.5t190 154t258 56.5q74 0 148 -19.5t124 -56.5l-63 -84q-103 78 -213 78q-63 0 -112.5 -21t-82 -61t-54.5 -87.5t-34.5 -112t-17.5 -123t-7 -130.5q13 20 35 41t57 44.5t86 38.5t109 15q80 0 155.5 -28t136.5 -78.5t97.5 -129.5t36.5 -173 q0 -125 -65 -227t-177.5 -160t-248.5 -58q-124 0 -222 48t-161 133t-96 199t-33 249zM362 557q0 -99 13 -186.5t39 -159t70 -113t100 -41.5q51 0 90 24t61 60t35.5 85.5t18 93t4.5 90.5q0 86 -19.5 158t-65.5 121.5t-112 49.5q-51 0 -98 -23t-75 -54.5t-44.5 -60.5 t-16.5 -44z" />
<glyph unicode="7" horiz-adv-x="1009" d="M61 961l89 329h94q55 -18 172 -18h542l-493 -1206q-37 -91 -123 -91q-47 0 -76.5 29.5t-29.5 75.5q0 40 40.5 117t226.5 398q165 282 281 484h-376q-88 0 -145 -24t-91 -94h-111z" />
<glyph unicode="8" horiz-adv-x="1159" d="M72 346q0 111 78 204t215 136q-103 42 -157 121.5t-54 169.5q0 61 26.5 118t77.5 104.5t134.5 76.5t187.5 29t186.5 -28.5t132 -76.5t75 -105t25.5 -118q0 -88 -52 -167.5t-152 -123.5q136 -44 214 -136.5t78 -203.5q0 -158 -139 -267.5t-368 -109.5t-368.5 109.5 t-139.5 267.5zM365 346q0 -140 50 -214.5t165 -74.5q215 0 215 289q0 137 -51.5 218t-163.5 81q-215 0 -215 -299zM399 977q0 -119 44 -188.5t137 -69.5q174 0 174 258q0 242 -174 242q-181 0 -181 -242z" />
<glyph unicode="9" horiz-adv-x="1155" d="M80 868q0 125 65 227t177.5 160t248.5 58q124 0 222 -48t161 -133t96 -199t33 -249q0 -143 -40 -269t-114 -223t-190 -153.5t-258 -56.5q-74 0 -148 19t-124 56l63 84q103 -78 213 -78q63 0 112.5 21t82 61t54.5 87.5t34.5 112t17.5 123t7 130.5q-13 -20 -35 -41 t-57 -44.5t-86 -38.5t-109 -15q-80 0 -155.5 28t-136.5 78.5t-97.5 129.5t-36.5 173zM362 874q0 -86 19.5 -158t65.5 -121.5t112 -49.5q51 0 98 23t75 54.5t44.5 60.5t16.5 44q0 99 -13 186.5t-39 159t-70 113t-100 41.5q-51 0 -90 -24t-61 -60t-35.5 -85.5t-18 -93 t-4.5 -90.5z" />
<glyph unicode=":" horiz-adv-x="503" d="M92 121q0 57 41 98t98 41t98.5 -41t41.5 -98q0 -58 -41.5 -99.5t-98.5 -41.5t-98 41.5t-41 99.5zM92 776q0 57 41 98t98 41t98.5 -41t41.5 -98q0 -58 -41.5 -99.5t-98.5 -41.5t-98 41.5t-41 99.5z" />
<glyph unicode=";" horiz-adv-x="526" d="M92 774q0 57 41 98t98 41t98.5 -41t41.5 -98q0 -58 -41.5 -99.5t-98.5 -41.5t-98 41.5t-41 99.5zM113 115q0 61 42 102t105 41q71 0 112.5 -54.5t41.5 -135.5q0 -90 -38.5 -171t-96.5 -137q-21 -22 -41 -2l-21 23q74 80 74 178q0 15 -4 23q-25 -5 -35 -5q-61 0 -100 41.5 t-39 96.5z" />
<glyph unicode="&#x3c;" horiz-adv-x="1054" d="M143 432v162q415 158 768 350v-129q-40 -21 -148.5 -79.5t-164 -86.5t-148.5 -68t-178 -67q85 -27 177.5 -67.5t149 -69.5t163.5 -86.5t149 -79.5v-129q-353 192 -768 350z" />
<glyph unicode="=" horiz-adv-x="1044" d="M143 297v102h717v-102h-717zM143 666v102h717v-102h-717z" />
<glyph unicode="&#x3e;" horiz-adv-x="1054" d="M143 82v129q42 22 149 79.5t163.5 86.5t149 69.5t177.5 67.5q-85 27 -178 67t-148.5 68t-164 86.5t-148.5 79.5v129q353 -192 768 -350v-162q-415 -158 -768 -350z" />
<glyph unicode="?" horiz-adv-x="1093" d="M102 913q0 171 118 281.5t317 110.5q213 0 333.5 -101.5t120.5 -257.5q0 -60 -21 -110.5t-56 -87t-77 -69t-85.5 -65.5t-81.5 -68t-65.5 -84t-35.5 -106h-88q-11 70 8.5 131.5t55.5 110.5t74 98.5t66 117t28 144.5q0 127 -47 194t-131 67q-87 0 -133 -63t-46 -181 q0 -37 12.5 -70.5t12.5 -60.5q0 -48 -36.5 -79.5t-98.5 -31.5q-65 0 -104.5 51.5t-39.5 128.5zM373 121q0 57 41 98t98 41t98 -41t41 -98q0 -58 -41 -99.5t-98 -41.5t-98 41.5t-41 99.5z" />
<glyph unicode="@" horiz-adv-x="1554" d="M72 510q0 149 57 277.5t153 215.5t224 136t270 49q143 0 270.5 -46.5t225 -131.5t154.5 -214.5t57 -285.5q0 -170 -92 -278.5t-242 -108.5q-69 0 -127.5 33.5t-93.5 93.5q-38 -57 -102.5 -94t-153.5 -37q-98 0 -170 51.5t-72 144.5q0 37 11 67.5t42 63t82 59t135 50.5 t197 41v16q0 31 -0.5 47.5t-3 44t-9 42.5t-17.5 31.5t-29 24t-43 7.5q-65 0 -91 -32.5t-26 -96.5q0 -27 -29 -42t-82 -15q-50 0 -71 19t-21 56q0 74 85 133.5t231 59.5q161 0 237 -67t76 -210v-335q0 -74 45 -74q26 0 43.5 25.5t24.5 74.5t9.5 94t2.5 111q0 275 -120 432.5 t-333 157.5t-332.5 -157.5t-119.5 -432.5q0 -269 121 -430.5t331 -161.5v-88q-143 0 -271.5 49t-224 136.5t-152 216t-56.5 278.5zM651 313q0 -42 23.5 -67t64.5 -25q49 0 90.5 33t67.5 80v180q-64 -13 -111 -32t-72.5 -38t-40 -43.5t-18.5 -44t-4 -43.5z" />
<glyph unicode="A" d="M20 0v78q107 8 157 37.5t75 99.5l360 1067h168l385 -1022q27 -70 48.5 -104t60.5 -53.5t106 -24.5v-78q-155 4 -310 4l-310 -4v78q97 6 128 27q18 12 18 37q0 18 -9 42l-92 248h-383l-82 -248q-5 -16 -5 -28q1 -34 37 -50q50 -21 171 -28v-78q-130 4 -261 4t-262 -4z M451 514h323l-172 459z" />
<glyph unicode="B" horiz-adv-x="1300" d="M51 0v78q86 6 117 21t31 53v956q0 39 -31 59.5t-105 26.5v78q88 -4 181.5 -4t185 2t121.5 2q129 0 229 -18t161.5 -47t101 -71t54.5 -85.5t15 -94.5q0 -179 -238 -262q188 -33 281.5 -120.5t93.5 -217.5q0 -172 -146 -264t-429 -92h-623zM487 158q0 -42 18 -56t87 -14h78 q286 0 286 268q0 130 -72 204.5t-218 74.5l-179 -31v-446zM487 688q201 32 277 90t76 178q0 107 -58 170.5t-182 63.5q-82 0 -113 -2v-500z" />
<glyph unicode="C" horiz-adv-x="1277" d="M72 647q0 146 47.5 270.5t128.5 208.5t189.5 131.5t230.5 47.5q84 0 180 -24t149 -24q40 0 97 13q19 -185 94 -357h-150q-140 304 -381 304q-129 0 -204.5 -133t-75.5 -375q0 -170 37.5 -316t115 -241t179.5 -95q49 0 92.5 15t76 37.5t67.5 63.5t60 77.5t62 95.5h170 q-113 -206 -133 -342q-57 12 -105 12q-61 0 -142 -23.5t-161 -23.5q-283 0 -453.5 179.5t-170.5 498.5z" />
<glyph unicode="D" horiz-adv-x="1357" d="M51 0v80q84 19 116 38t32 60v918q0 50 -30 71t-106 27v78q88 -4 175.5 -4t189.5 2t162 2q155 0 277.5 -35.5t215.5 -109.5t143 -198t50 -292q0 -110 -22.5 -202.5t-59.5 -156.5t-87 -114.5t-101.5 -80.5t-106.5 -49.5t-98.5 -26.5t-81.5 -7q-55 0 -174.5 17.5 t-194.5 17.5q-42 0 -87 -4t-66.5 -7t-78 -12.5t-67.5 -11.5zM487 160q0 -24 12.5 -40t37.5 -24t49.5 -10.5t62.5 -3.5h4q81 0 139 40q60 40 95.5 117t52 177t16.5 227q0 259 -93 403t-277 144q-54 0 -99 -4v-1026z" />
<glyph unicode="E" horiz-adv-x="1110" d="M51 0v78q85 6 116.5 22t31.5 54v966q0 38 -31 53t-117 21v78h895q20 0 26 -6.5t9 -30.5l33 -244h-88l-25 43q-49 85 -92 117.5t-125 32.5h-166q-14 0 -22.5 -9t-8.5 -22v-455h209q73 0 104.5 28.5t45.5 96.5h69q-7 -86 -7 -171.5t7 -170.5h-69q-15 69 -46 99t-104 30 h-209v-489q0 -13 8.5 -22t22.5 -9h111q115 0 171.5 27t92.5 102l65 137h91q-63 -183 -66 -356q-238 6 -471 6t-461 -6z" />
<glyph unicode="F" horiz-adv-x="1060" d="M51 0v78q85 6 116.5 22t31.5 54v966q0 38 -31 53t-117 21v78h891q20 0 26 -6.5t9 -30.5l33 -244h-88l-25 43q-49 85 -92 117.5t-125 32.5h-162q-14 0 -22.5 -9t-8.5 -22v-455h209q73 0 104.5 28.5t45.5 96.5h69q-7 -86 -7 -171.5t7 -170.5h-69q-15 69 -46 99t-104 30 h-209v-456q0 -38 31.5 -54t116.5 -22v-78q-146 4 -292 4z" />
<glyph unicode="G" horiz-adv-x="1366" d="M72 647q0 146 48 270.5t129.5 208.5t190.5 131.5t230 47.5q80 0 176.5 -24t150.5 -24q40 0 97 13q19 -185 94 -357h-150q-65 142 -164 223t-221 81q-127 0 -201.5 -133t-74.5 -375q0 -170 37.5 -316t115 -241t179.5 -95q32 0 57.5 2.5t46.5 9t37 14t28 21t20.5 26.5 t14.5 34t9.5 39.5t5 48t2 54.5t0.5 63q0 89 -9 111q-14 32 -71 40l-14 2l-66 6v78q137 -3 273.5 -3t271.5 3v-78l-43 -6q-28 -4 -44 -18.5t-23 -49t-8 -60t-1 -84.5v-25q0 -88 8 -172l37 -4q27 -3 27 -29v-55q-41 6 -115 6q-105 0 -238.5 -31t-240.5 -31q-126 0 -235.5 46 t-191.5 130.5t-128.5 214t-46.5 287.5z" />
<glyph unicode="H" horiz-adv-x="1419" d="M51 0v78q86 6 119 22t33 54v964q0 38 -33 54t-119 22v78q148 -4 296 -4l296 4v-78q-86 -6 -118.5 -22t-32.5 -54v-440h436v440q0 38 -33 54t-119 22v78q148 -4 296 -4l296 4v-78q-86 -6 -118.5 -22t-32.5 -54v-964q0 -38 32.5 -54t118.5 -22v-78q-148 4 -296 4l-296 -4 v78q86 6 119 22t33 54v442h-436v-442q0 -38 32.5 -54t118.5 -22v-78q-148 4 -296 4z" />
<glyph unicode="I" horiz-adv-x="694" d="M51 0v78q86 6 119 22t33 54v964q0 38 -33 54t-119 22v78q148 -4 296 -4l296 4v-78q-86 -6 -118.5 -22t-32.5 -54v-964q0 -38 32.5 -54t118.5 -22v-78q-148 4 -296 4z" />
<glyph unicode="J" horiz-adv-x="716" d="M-41 -281q67 0 114 17t82.5 58.5t52.5 114.5t17 181v1028q0 38 -32.5 54t-118.5 22v78q148 -4 296 -4l296 4v-78q-86 -6 -119 -22t-33 -54v-858q0 -172 -37 -293.5t-110 -192.5t-172.5 -102.5t-235.5 -31.5v79z" />
<glyph unicode="K" horiz-adv-x="1394" d="M41 0v78q86 6 119 22t33 54v964q0 38 -33 54t-119 22v78q148 -4 296 -4l296 4v-78q-86 -6 -119 -22t-33 -54v-512l453 502q11 13 11 24q0 22 -41 39q-42 18 -113 23v78q119 -4 238 -4t239 4v-78q-80 -6 -128 -28t-83 -60l-338 -377l338 -457q79 -107 147 -163.5 t139 -63.5l-69 -78q-53 0 -91.5 3t-89 14t-90.5 30.5t-84 55.5t-81 86l-287 385l-70 -78v-309q0 -38 33 -54t119 -22v-78q-148 4 -296 4z" />
<glyph unicode="L" horiz-adv-x="1101" d="M41 1194v78q148 -4 296 -4l296 4v-78q-86 -6 -119 -22t-33 -54v-999q0 -13 8.5 -22t22.5 -9h129q114 0 171 27.5t93 103.5l66 137h90q-63 -183 -66 -356q-243 4 -480.5 4t-469.5 -4v78q85 6 116.5 22t31.5 54v964q0 38 -33 54t-119 22z" />
<glyph unicode="M" horiz-adv-x="1622" d="M31 0v78q107 9 161 25t54 51v936q0 40 -49.5 69t-133.5 35v78q112 -4 223 -4t222 4l354 -805l277 805q113 -4 226 -4l226 4v-78q-87 -6 -119 -21t-32 -53v-966q0 -38 32.5 -54t118.5 -22v-78q-148 4 -296 4l-296 -4v78q86 6 119 22t33 54v866l-352 -1020l-459 1020v-866 q0 -35 56 -51t169 -25v-78q-136 4 -270 4t-264 -4z" />
<glyph unicode="N" horiz-adv-x="1355" d="M31 0v78q99 9 150.5 25t51.5 51v938q0 37 -50 66.5t-132 35.5v78q110 -4 221 -4t222 4l532 -778v624q0 35 -55 51.5t-168 24.5v78q138 -4 268.5 -4t253.5 4v-78q-100 -9 -152.5 -25t-52.5 -51v-1118h-88l-704 1020v-866q0 -35 56 -51t169 -25v-78q-138 4 -268.5 4 t-253.5 -4z" />
<glyph unicode="O" horiz-adv-x="1341" d="M72 645q0 186 77 337t214.5 237t308.5 86q169 0 306 -85.5t214.5 -237t77.5 -339.5q0 -142 -45.5 -267.5t-124.5 -214.5t-189.5 -140.5t-236.5 -51.5q-130 0 -241.5 48.5t-191 135.5t-124.5 214t-45 278zM377 698q0 -183 39 -328.5t113 -229t171 -83.5q125 0 195 125.5 t70 392.5q0 184 -39.5 329.5t-114 229t-172.5 83.5q-122 0 -192 -129t-70 -390z" />
<glyph unicode="P" horiz-adv-x="1200" d="M51 0v78q86 6 117 21t31 53v956q0 39 -31 59.5t-105 26.5v78q88 -4 186.5 -4t197.5 2t131 2q133 0 234 -17.5t166.5 -48t106.5 -76.5t57.5 -99t16.5 -120q0 -151 -148.5 -250.5t-478.5 -160.5l-45 -8v-340q0 -38 31 -53t117 -21v-78q-146 4 -292 4zM487 578l41 6 q357 55 357 331q0 129 -62 202t-188 73q-113 0 -148 -2v-610z" />
<glyph unicode="Q" horiz-adv-x="1372" d="M72 647q0 147 48 271t130.5 208.5t196 131.5t243.5 47q127 0 240.5 -50t196.5 -136.5t131.5 -209.5t48.5 -262q0 -547 -588 -735q-12 -4 -55 -17.5t-58 -19t-48.5 -18t-51 -21t-39.5 -21.5t-37 -26q112 55 225 55q75 0 221 -45t211 -45q88 0 138.5 31t58.5 84h119 q0 -148 -84 -243t-221 -95q-62 0 -118 25.5t-98 61.5t-82.5 72t-88.5 61.5t-99 25.5q-69 0 -121.5 -26t-72.5 -58h-236q37 75 176.5 153.5t331.5 122.5q-276 0 -447 180.5t-171 497.5zM377 709q0 -166 43.5 -315t123.5 -243t177 -94q280 0 280 529q0 276 -91 453.5 t-242 177.5q-138 0 -214.5 -132t-76.5 -376z" />
<glyph unicode="R" horiz-adv-x="1298" d="M51 0v78q86 6 117 21t31 53v956q0 39 -31 59.5t-105 26.5v78q88 -4 186.5 -4t197.5 2t131 2q132 0 232 -17t165 -47.5t106 -76t57.5 -97t16.5 -116.5q0 -118 -85.5 -205.5t-268.5 -147.5l160 -246q160 -247 307 -258l-49 -77q-53 0 -94 3.5t-96 18t-101.5 40.5t-99 73.5 t-99.5 113.5l-190 267h-7l-45 -8v-340q0 -38 31 -53t117 -21v-78q-146 4 -292 4zM487 578l39 6q186 30 270.5 115.5t84.5 224.5q0 124 -61.5 195t-186.5 71q-111 0 -146 -2v-610z" />
<glyph unicode="S" horiz-adv-x="1032" d="M51 311h68q26 0 39 -8t20 -31q33 -96 125 -152.5t209 -56.5q85 0 140 53.5t55 141.5q0 84 -63 147.5t-210 131.5q-55 26 -95 47t-85 50.5t-76 61t-57.5 71t-39.5 87.5t-13 104q0 154 113.5 250.5t283.5 96.5q68 0 123.5 -12.5t90.5 -25t52 -12.5q41 0 49 33h82l17 -295 l-52 2q-26 2 -39.5 11t-25.5 34q-38 88 -105 133.5t-145 45.5q-89 0 -139.5 -49.5t-50.5 -122.5q0 -85 56.5 -137.5t184.5 -110.5q145 -65 201 -100q213 -139 217 -347q0 -74 -26.5 -138t-69.5 -108t-98 -75t-111.5 -45.5t-110.5 -14.5q-83 0 -154 20t-117 40t-69 20 q-55 0 -67 -51h-86z" />
<glyph unicode="T" horiz-adv-x="1167" d="M31 1006l71 280h88q66 -14 218 -14h426q149 0 215 14h88l-76 -280h-90q4 58 4 93t-13.5 54t-31 25t-47.5 6h-154v-1030q0 -38 33 -54t119 -22v-78q-148 4 -296 4l-296 -4v78q86 6 118.5 22t32.5 54v1030h-149q-55 0 -85.5 -32t-84.5 -146h-90z" />
<glyph unicode="U" horiz-adv-x="1470" d="M31 1194v78q148 -4 297 -4l297 4v-78q-86 -6 -119 -22t-33 -54v-729q0 -152 53 -234.5t160 -82.5q190 0 313 264v782q0 38 -32.5 54t-118.5 22v78q148 -4 296 -4l296 4v-78q-86 -6 -119 -22t-33 -54v-964q0 -38 33 -54t119 -22v-78q-138 4 -255.5 4t-215.5 -4v78 q30 23 30 76v69q-127 -243 -387 -243q-204 0 -317 110.5t-113 296.5v731q0 38 -32.5 54t-118.5 22z" />
<glyph unicode="V" horiz-adv-x="1323" d="M20 1194v78q148 -4 298.5 -4t302.5 4v-78q-91 -4 -130 -22q-29 -13 -29 -36q0 -7 3 -16l297 -780l264 780q7 19 -4 32.5t-38 21.5t-61 13t-81 7v78q116 -4 231.5 -4t229.5 4v-78q-89 -6 -129.5 -21.5t-53.5 -52.5l-395 -1138h-107l-446 1138q-14 38 -42.5 53t-109.5 21z " />
<glyph unicode="W" horiz-adv-x="1998" d="M20 1194v78q148 -4 298.5 -4t302.5 4v-78q-90 -4 -129 -22q-30 -13 -30 -37q0 -7 3 -15l266 -780l207 700l-29 80q-13 38 -44 54t-113 20v78q150 -4 300 -4t298 4v-78q-88 -5 -124 -22q-27 -13 -27 -36q0 -8 3 -16l266 -780l234 780q2 7 2 13q0 25 -38 39q-46 16 -140 22 v78q113 -4 226 -4l226 4v-78q-89 -6 -129.5 -21.5t-52.5 -52.5l-364 -1138h-107l-336 921l-295 -921h-106l-416 1138q-9 25 -22 38.5t-43.5 22.5t-86.5 13z" />
<glyph unicode="X" horiz-adv-x="1302" d="M49 0v78q157 8 234 119l262 374l-312 512q-33 56 -72.5 79.5t-109.5 31.5v78q131 -4 262 -4l262 4v-78q-45 -8 -66 -25.5t-9 -38.5l202 -333l220 313q20 28 -14.5 52t-98.5 32v78q104 -4 208 -4l208 4v-78q-67 -8 -123.5 -38t-89.5 -79l-256 -366l317 -523 q34 -58 72.5 -82t107.5 -28v-78q-136 4 -271 4t-269 -4v78q52 7 80 22.5t12 42.5l-207 342l-225 -321q-11 -16 -11 -29q0 -16 16 -28q28 -23 91 -29v-78q-96 4 -201 4t-219 -4z" />
<glyph unicode="Y" horiz-adv-x="1316" d="M31 1194v78q148 -4 296 -4l296 4v-78q-80 -6 -105 -27.5t-6 -54.5l254 -475l235 455q11 22 11 38q0 22 -19 34q-34 23 -112 30v78q101 -4 202.5 -4t202.5 4v-78q-76 -6 -116.5 -28.5t-67.5 -75.5l-299 -578v-358q0 -38 32.5 -54t118.5 -22v-78q-148 4 -296 4l-296 -4v78 q86 6 119 22t33 54v352l-334 606q-11 19 -14 24t-15.5 19t-25.5 19t-37 11.5t-57 8.5z" />
<glyph unicode="Z" horiz-adv-x="1196" d="M41 0l717 1192h-391q-56 0 -84.5 -32.5t-78.5 -134.5q-2 -4 -3 -6.5t-2.5 -6t-3.5 -6.5h-105l72 280h88q46 -10 85 -12t132 -2h661l-716 -1192h206q44 0 78.5 7t54.5 14t44.5 28.5t34 32t36.5 43.5l129 151h140q-83 -120 -148 -262l49 -8q37 -6 37 -33v-53q-258 4 -516 4 z" />
<glyph unicode="[" horiz-adv-x="659" d="M92 -311v1837l516 28v-59q0 -13 -12 -22t-31 -11l-196 -14v-1681l196 -15q19 -2 31 -11t12 -22v-59z" />
<glyph unicode="\" horiz-adv-x="921" d="M96 1477h191l547 -1641h-191z" />
<glyph unicode="]" horiz-adv-x="659" d="M51 -281q0 13 12 22t31 11l197 15v1681l-197 14q-19 2 -31 11t-12 22v59l516 -28v-1837l-516 -29v59z" />
<glyph unicode="^" horiz-adv-x="774" d="M45.5 946.5q-11.5 22.5 3.5 42.5l301 406q19 21 40.5 19t33.5 -19l301 -406q16 -20 4 -42.5t-41 -22.5h-29q-5 0 -10 0.5t-9.5 3t-8.5 3.5t-9 5t-7.5 5.5t-7.5 6.5l-6.5 6.5l-6.5 6.5l-6 6l-201 204l-201 -204q-38 -43 -73 -43h-29q-27 0 -38.5 22.5z" />
<glyph unicode="_" horiz-adv-x="1222" d="M61 -41h1049v-162h-1049v162z" />
<glyph unicode="`" horiz-adv-x="657" d="M109 1341.5q18 -45.5 71 -65.5l346 -127l29 45l-281 233q-44 37 -87.5 36.5t-69.5 -38.5t-8 -83.5z" />
<glyph unicode="a" horiz-adv-x="1097" d="M51 236q0 102 55 174.5t190 131.5t366 107l-3 125q-2 112 -22 155.5t-74 43.5q-56 0 -93.5 -17.5t-55 -45.5t-28.5 -61.5t-19.5 -67t-21.5 -61.5t-42 -45.5t-74 -17.5q-58 0 -87 29.5t-29 79.5q0 116 134.5 197t330.5 81q90 0 152 -12.5t111.5 -44t73 -90.5t23.5 -149 v-492q0 -55 32 -72q20 -10 52 -10q20 0 45 4v-86q-85 -21 -161.5 -52.5t-119.5 -51t-63 -19.5q-61 0 -61 64v12l12 156q-91 -230 -316 -230q-82 0 -149.5 27t-112.5 88.5t-45 149.5zM332 258q0 -73 35 -118.5t96 -45.5q42 0 78.5 25t60.5 63t38.5 73.5t21.5 66.5v256 q-330 -69 -330 -320z" />
<glyph unicode="b" horiz-adv-x="1202" d="M20 1139v78q87 18 163.5 51.5t120.5 57.5t65 24q30 0 42.5 -17t12.5 -53v-350q103 112 264 112q77 0 154 -36t142 -102t105.5 -172.5t40.5 -235.5q0 -98 -27 -184t-72 -148t-102.5 -106.5t-119 -66.5t-121.5 -22q-62 0 -112 20t-77 43.5t-61.5 43.5t-70.5 20 q-43 0 -73.5 -25.5t-39.5 -70.5h-45q-62 0 -62 61v998q-1 54 -33 72q-21 12 -53 12q-19 0 -41 -4zM424 285q4 -91 78 -163.5t153 -72.5q97 0 138 98.5t41 280.5q0 242 -60 384t-164 142q-59 0 -106.5 -33t-79.5 -79v-557z" />
<glyph unicode="c" horiz-adv-x="1021" d="M61 520q0 123 42.5 224t113.5 165t159.5 98.5t182.5 34.5q172 0 286 -79t116 -195q0 -46 -32 -78.5t-95 -32.5q-60 -1 -92 31q-30 29 -29 70v8q1 15 1 30q0 165 -128 165q-113 0 -169.5 -115.5t-56.5 -319.5q0 -129 26 -232t83 -168t137 -65q95 0 147.5 41t69.5 103 q9 26 33 26h51q24 0 33 -18t-4 -41q-114 -192 -354 -192q-102 0 -194.5 34.5t-166 100t-117 170t-43.5 235.5z" />
<glyph unicode="d" horiz-adv-x="1206" d="M51 526q0 119 41 219.5t106.5 163.5t144 98t157.5 35q167 0 260 -141v158q0 54 -32 72q-21 12 -54 12q-18 0 -41 -4v78q87 18 163 51.5t119.5 57.5t63.5 24q31 0 44 -17t13 -53v-1022q0 -55 32 -72q20 -10 52 -10q20 0 45 4v-88q-85 -21 -161.5 -52.5t-119.5 -51 t-63 -19.5q-34 0 -50 21t-11 59l12 96q-11 -33 -30 -61.5t-49.5 -56t-79 -43t-109.5 -15.5q-63 0 -126 21.5t-122 67.5t-104.5 110.5t-73 157t-27.5 200.5zM348 602q0 -246 63 -395.5t169 -149.5q73 0 120.5 64.5t59.5 154.5v533q-37 60 -97 104.5t-126 44.5 q-189 0 -189 -356z" />
<glyph unicode="e" horiz-adv-x="1040" d="M61 518q0 123 43 225t113 166t155 98.5t173 34.5q185 0 309.5 -119.5t124.5 -297.5q0 -146 -127 -146h-500q1 -70 9 -129.5t26.5 -113.5t47.5 -92t73 -60.5t100 -22.5q85 0 135 36t86 104q15 30 43 30h37q21 0 29 -16.5t-4 -38.5q-53 -98 -138 -147t-218 -49 q-103 0 -195 35t-164.5 101t-115 170t-42.5 232zM352 573h359q0 193 -38 290.5t-130 97.5q-191 0 -191 -388z" />
<glyph unicode="f" horiz-adv-x="851" d="M31 0v78q60 7 92.5 24t32.5 52v784h-88q-27 0 -27 29v30q0 29 27 29h88q2 101 34.5 175t88 115.5t120.5 61t142 19.5q117 0 209 -55.5t92 -143.5q0 -104 -97 -104q-42 0 -65.5 21.5t-31.5 52t-14 61.5t-22 52.5t-47 21.5q-35 0 -59.5 -14t-38.5 -36t-22 -60t-10.5 -75.5 t-2.5 -91.5h191q26 0 26 -29v-30q0 -29 -26 -29h-191v-784q0 -36 33.5 -52.5t95.5 -23.5v-78q-133 4 -265 4z" />
<glyph unicode="g" horiz-adv-x="1153" d="M61 231q0 67 51 113t144 47q-74 38 -121 114.5t-47 166.5q0 165 120 267.5t314 102.5q114 0 187.5 -34t138.5 -95q38 127 153 127q54 0 77.5 -25.5t23.5 -80.5q0 -30 -2.5 -48.5t-16.5 -35.5t-41 -16q-15 1 -42.5 6.5t-45.5 5.5q-34 0 -22 -37q1 -3 6 -17t7.5 -20 t6.5 -20t6 -24.5t3.5 -25.5t1.5 -30q0 -164 -121.5 -261.5t-315.5 -97.5q-60 0 -131.5 14.5t-87.5 14.5q-53 0 -53 -45q0 -31 35 -50.5t114 -29.5l228 -33q216 -31 312.5 -94t96.5 -201q0 -96 -68.5 -173t-185.5 -118.5t-260 -41.5q-207 0 -332.5 71.5t-125.5 200.5 q0 73 42 117.5t113 44.5q48 0 80.5 -22.5t32.5 -65.5q0 -31 -11.5 -65.5t-11.5 -67.5q0 -54 55.5 -96t163.5 -42q124 0 201.5 55.5t77.5 161.5q0 51 -35 80.5t-117 44.5l-389 72q-209 38 -209 186zM360 672q0 -54 8 -100t25.5 -87t51 -64.5t79.5 -23.5t79.5 23.5t51 64.5 t25.5 87t8 100q0 52 -7.5 99.5t-25 92t-51 71t-80.5 26.5t-80.5 -26.5t-51 -71t-25 -92t-7.5 -99.5z" />
<glyph unicode="h" horiz-adv-x="1241" d="M31 0v78q61 7 94 24t33 52v905q0 54 -32 72q-21 12 -54 12q-18 0 -41 -4v78q87 18 163 51.5t119.5 57.5t63.5 24q31 0 44 -17t13 -53v-332l-18 -137q152 233 358 233q51 0 93.5 -9t83.5 -33.5t68.5 -63.5t44.5 -102.5t17 -147.5v-534q0 -36 33.5 -52.5t95.5 -23.5v-78 q-133 4 -266 4l-266 -4v78q127 11 127 76v524q0 48 -2 81.5t-9 66.5t-19.5 52.5t-33.5 31.5t-51 12q-45 0 -91 -26.5t-79 -64.5t-55 -70t-31 -54v-553q0 -66 129 -76v-78q-133 4 -266 4z" />
<glyph unicode="i" horiz-adv-x="614" d="M41 856v78q90 15 166.5 45t121.5 52t68 22q60 0 60 -66q0 -33 -6.5 -123.5t-6.5 -161.5v-548q0 -36 33.5 -52.5t95.5 -23.5v-78q-132 4 -265 4l-265 -4v78q60 7 92.5 24t32.5 52v616q0 54 -32 72q-25 15 -70 15q-12 0 -25 -1zM154 1303q0 60 42.5 101.5t102.5 41.5 t101.5 -41.5t41.5 -101.5t-41.5 -103t-101.5 -43t-102.5 43t-42.5 103z" />
<glyph unicode="j" horiz-adv-x="606" d="M-61 -362q66 10 110.5 31t79 62t50.5 110t16 169v760q0 54 -32 72q-25 15 -70 15q-12 0 -25 -1v78q90 15 166.5 45t121.5 52t68 22q59 0 59 -66q0 -33 -6 -123.5t-6 -161.5v-524q0 -173 -34 -293.5t-103 -192t-162.5 -103t-222.5 -31.5zM184 1303q0 60 43 101.5t103 41.5 t101.5 -41.5t41.5 -101.5t-41.5 -103t-101.5 -43t-103 43t-43 103z" />
<glyph unicode="k" horiz-adv-x="1173" d="M41 1139v78q87 18 163 51.5t120 57.5t65 24q30 0 42.5 -17t12.5 -53v-713q157 116 277 289q22 33 -2 56.5t-86 29.5v84q113 -4 226 -4l226 4v-84q-57 -6 -95 -25t-93 -65l-283 -244l293 -387q125 -164 246 -176l-70 -78q-57 0 -100.5 5.5t-98 22.5t-105 54.5t-95.5 95.5 l-240 304v-295q0 -66 129 -76v-78q-152 5 -284.5 5t-245.5 -5v78q60 7 92.5 24t32.5 52v905q0 54 -32 72q-21 12 -54 12q-19 0 -41 -4z" />
<glyph unicode="l" horiz-adv-x="589" d="M20 1139v78q87 18 162.5 51.5t118.5 57.5t64 24q30 0 42.5 -17t12.5 -53v-1055q0 -54 32 -72q24 -13 67 -13q14 0 30 1v-75q-82 -18 -159 -43t-119.5 -39.5t-63.5 -14.5q-32 0 -46 16t-14 52v1022q-1 54 -33 72q-21 12 -53 12q-19 0 -41 -4z" />
<glyph unicode="m" horiz-adv-x="1839" d="M31 0v78q61 7 94 24t33 52v608q0 54 -32 72q-21 12 -54 12q-18 0 -41 -4v78q87 18 163 51.5t119.5 57.5t63.5 24q32 0 47 -20.5t10 -57.5l-18 -164q16 28 34.5 54t53 60.5t73.5 59t96 42t120 17.5q99 0 162 -61t87 -172q15 28 33.5 54t52.5 60.5t73 59t96.5 42 t121.5 17.5q127 0 193.5 -82t66.5 -245v-563q0 -36 33.5 -52.5t95.5 -23.5v-78q-133 4 -266 4l-266 -4v78q127 7 127 76v512q0 125 -22.5 190.5t-84.5 65.5q-40 0 -80 -23t-71 -58.5t-53 -69.5t-35 -64v-553q0 -69 129 -76v-78q-133 4 -266.5 4t-266.5 -4v78q127 7 127 76 v512q0 60 -4 102.5t-15 79.5t-32.5 55.5t-54.5 18.5q-41 0 -81.5 -23t-71.5 -59t-52 -69t-35 -64v-553q0 -69 129 -76v-78q-133 4 -266 4z" />
<glyph unicode="n" horiz-adv-x="1241" d="M31 0v78q61 7 94 24t33 52v608q0 54 -32 72q-21 12 -54 12q-18 0 -41 -4v78q87 18 163 51.5t119.5 57.5t63.5 24q32 0 47 -20.5t10 -57.5l-18 -164q152 233 358 233q51 0 93.5 -9t83.5 -33.5t68.5 -63.5t44.5 -102.5t17 -147.5v-534q0 -36 33.5 -52.5t95.5 -23.5v-78 q-133 4 -266 4l-266 -4v78q127 11 127 76v524q0 48 -2 81.5t-9 66.5t-19.5 52.5t-33.5 31.5t-51 12q-45 0 -91 -26.5t-79 -64.5t-55 -70t-31 -54v-553q0 -66 129 -76v-78q-133 4 -266 4z" />
<glyph unicode="o" horiz-adv-x="1116" d="M61 506q0 108 29.5 198.5t78.5 152t113.5 104t134 62t140.5 19.5t141 -19.5t135 -61.5t114 -101.5t78.5 -147t29.5 -190.5q0 -106 -29.5 -196t-78.5 -152.5t-113.5 -107t-134 -65.5t-140.5 -21t-141.5 21t-134.5 64.5t-113.5 104.5t-79 148t-29.5 188zM358 573 q0 -231 62 -371.5t166 -140.5q172 0 172 390q0 232 -62 371t-166 139q-85 0 -128.5 -99.5t-43.5 -288.5z" />
<glyph unicode="p" horiz-adv-x="1210" d="M31 842v78q87 18 163 51.5t119.5 57.5t63.5 24q31 0 44 -17t13 -53v-55q106 114 275 114q75 0 151 -35.5t141.5 -101.5t106.5 -174t41 -239q0 -96 -29.5 -181t-78 -146t-111 -106t-130 -67.5t-132.5 -22.5q-135 0 -234 103v-217q0 -55 36 -71q22 -10 62 -10q22 0 50 3 v-84q-95 -17 -189.5 -51.5t-154 -59t-88.5 -24.5q-50 0 -50 41q0 16 9 30.5t20 28t20 54t9 102.5v948q0 54 -32 72q-21 12 -54 12q-19 0 -41 -4zM434 291q14 -98 84 -171t152 -73q66 0 108 50t58 126t16 180q0 254 -59 402.5t-160 148.5q-107 0 -199 -114v-549z" />
<glyph unicode="q" horiz-adv-x="1224" d="M61 526q0 119 41 219.5t106.5 163.5t144 98t157.5 35q56 0 100 -12t71 -29t49.5 -34t47.5 -29t53 -12q42 0 71 27t38 73h45q62 0 62 -61v-1110q0 -55 35 -71q22 -10 62 -10q22 0 50 3v-84q-96 -18 -177 -52t-125.5 -58.5t-64.5 -24.5q-31 0 -44 16.5t-13 52.5v471 q-92 -129 -254 -129q-63 0 -126.5 21.5t-123 67.5t-105 110.5t-73 157t-27.5 200.5zM358 602q0 -246 63 -395.5t169 -149.5q60 0 113 57t67 132v493q-13 91 -81 155t-142 64q-189 0 -189 -356z" />
<glyph unicode="r" horiz-adv-x="940" d="M31 840v78q88 18 163.5 52t119 58.5t63.5 24.5q32 0 47 -20.5t10 -57.5l-31 -211q56 144 136.5 213.5t197.5 69.5q75 0 123.5 -39.5t48.5 -100.5q0 -60 -38 -93.5t-85 -33.5q-48 0 -97.5 36t-84.5 36q-33 0 -61 -15.5t-44.5 -35.5t-30.5 -51t-20 -49.5t-12 -43.5 q-1 -6 -2 -8v-495q0 -36 33.5 -52.5t95.5 -23.5v-78q-132 4 -265 4l-265 -4v78q60 7 92.5 24t32.5 52v606q0 54 -32 72q-21 12 -54 12q-19 0 -41 -4z" />
<glyph unicode="s" horiz-adv-x="888" d="M61 750q0 128 94.5 210t233.5 82q61 0 109.5 -14t79 -28.5t49.5 -14.5q39 0 49 41h80l18 -281h-41q-48 0 -63 39q-36 87 -101.5 136t-138.5 49q-63 0 -103 -38t-40 -97q0 -62 44.5 -102.5t137.5 -82.5q133 -60 182 -91q186 -116 187 -273q0 -87 -52 -160.5t-130.5 -112.5 t-161.5 -39q-61 0 -119.5 18.5t-100 37t-61.5 18.5q-38 0 -41 -45h-80l-24 285h43q25 0 39.5 -7.5t21.5 -29.5q26 -81 114.5 -141t174.5 -60q65 0 104 38t39 97q0 37 -14 66t-47 54.5t-64 42.5t-88 44q-40 19 -62.5 30.5t-62 34.5t-63.5 41.5t-54.5 48t-47 58.5t-28.5 67 t-12 79z" />
<glyph unicode="t" horiz-adv-x="708" d="M31 967v30q0 29 26 29q109 0 163.5 71t70.5 208h125v-279h196q27 0 27 -29v-30q0 -29 -27 -29h-196v-676q0 -51 6.5 -84t29 -56.5t62.5 -23.5q69 0 125 60v-92q-36 -31 -92 -50.5t-119 -19.5q-137 0 -213 74.5t-76 230.5v637h-82q-26 0 -26 29z" />
<glyph unicode="u" horiz-adv-x="1243" d="M31 930v80l338 24q25 2 41 -11t16 -40v-629q0 -64 3.5 -104.5t15 -80t37 -58.5t65.5 -19q37 0 74 21.5t63.5 50t52 67t38 62t22.5 45.5v528q0 36 -14 51.5t-44 14.5l-61 -2v80l338 24q25 2 41 -11t16 -40v-737q1 -55 33 -72q20 -10 51 -10q20 0 45 4v-76 q-85 -21 -162.5 -52.5t-120.5 -51t-61 -19.5q-34 1 -50 23q-13 17 -12 44q0 8 1 17l20 168q-19 -32 -35.5 -55.5t-51.5 -64t-70 -66.5t-87.5 -46t-107.5 -20q-65 0 -117.5 17t-99 56.5t-72.5 113.5t-26 178v532q0 36 -14 51.5t-44 14.5z" />
<glyph unicode="v" horiz-adv-x="1155" d="M31 948v78h528v-80l-51 -4q-60 -6 -60 -64q0 -29 15 -71l201 -569l176 569q7 24 7 43q1 31 -17 53q-30 36 -82 39l-72 4v80h448v-78l-39 -6q-60 -8 -94 -37.5t-57 -97.5l-264 -815h-174l-299 815q-26 69 -50 98.5t-73 36.5z" />
<glyph unicode="w" horiz-adv-x="1773" d="M31 948v78h522v-80l-45 -4q-57 -6 -57 -64q0 -29 14 -71l188 -567l170 555l-4 12q-24 69 -46.5 100.5t-59.5 34.5l-66 4v80h524v-80l-43 -4q-57 -6 -57 -64q0 -29 14 -71l189 -567l174 567q8 25 8 46q0 31 -18 51q-30 34 -86 38l-66 4v80h457v-78l-39 -6q-62 -9 -99 -39 t-59 -96l-264 -807h-180l-228 649l-212 -649h-181l-282 807q-23 67 -49 97.5t-76 37.5z" />
<glyph unicode="x" horiz-adv-x="1138" d="M41 0v78l39 6q72 11 116 36t87 87l174 254l-240 385q-30 49 -59.5 69t-69.5 27l-43 6v78h514v-80l-51 -4q-27 -3 -27 -24q0 -18 19 -50l112 -178l115 166q18 29 18 49q0 7 -2 13q-9 22 -41 24l-69 4v80h438v-78l-37 -6q-73 -11 -117 -36t-86 -87l-155 -227l260 -412 q32 -52 56 -71t63 -25l43 -6v-78q-128 4 -255 4t-253 -4v80l51 4q26 3 26 24q0 18 -20 50l-129 204l-131 -192q-19 -30 -19 -50q0 -6 2 -12q8 -22 40 -24l71 -4v-80q-110 4 -220 4z" />
<glyph unicode="y" horiz-adv-x="1189" d="M31 948v78q134 -4 265 -4t259 4v-78l-61 -6q-32 -3 -46.5 -28t-1.5 -56l244 -553l211 553q12 32 -10 56.5t-62 27.5l-67 6v78q88 -4 187 -4t210 4v-78l-61 -6q-76 -8 -103 -84l-491 -1266q-8 -23 -22.5 -32t-51.5 -9q-46 0 -62.5 10t-5.5 31q5 10 31.5 59.5t50.5 95 t50.5 97t42.5 87t16 44.5q0 22 -58.5 157.5t-181 405t-145.5 320.5q-33 79 -76 84z" />
<glyph unicode="z" horiz-adv-x="991" d="M45 24.5q-11 24.5 10 55.5l557 872l-276 -2q-11 0 -20.5 -2t-17.5 -4t-16 -8.5t-13.5 -10.5t-13 -16t-12.5 -19t-13.5 -24t-14 -27.5t-17 -34t-18.5 -38.5h-104l71 274h89q66 -14 208 -14q311 0 506 4l-600 -952l264 4q75 1 112.5 43t98.5 176h109l-70 -301h-772 q-36 0 -47 24.5z" />
<glyph unicode="{" horiz-adv-x="591" d="M92 571v68q81 36 106 58t25 67v358q0 77 9 134.5t33 115.5t73.5 103t124.5 75l78 -55q-28 -14 -46 -40t-28 -53t-14.5 -78.5t-5.5 -89t-1 -112.5v-307q0 -87 -43 -135.5t-129 -71.5v-6q86 -23 129 -71.5t43 -135.5v-307q0 -75 1 -112.5t5.5 -89t14.5 -78.5t28 -53t46 -40 l-78 -55q-75 30 -124.5 75t-73.5 103t-33 115.5t-9 134.5v358q0 45 -25 67t-106 58z" />
<glyph unicode="|" horiz-adv-x="542" d="M184 -440v2078h174v-2078h-174z" />
<glyph unicode="}" horiz-adv-x="591" d="M51 -285q23 12 39.5 29.5t26.5 46.5t16 53t8.5 71.5t3 78t0.5 94.5v307q0 87 43 135.5t129 71.5v6q-86 23 -129 71.5t-43 135.5v307q0 64 -0.5 94.5t-3 78t-8.5 71.5t-16 53t-26.5 46.5t-39.5 29.5l78 55q75 -30 124.5 -75t73.5 -103t33 -115.5t9 -134.5v-358 q0 -45 25 -67t106 -58v-68q-81 -36 -106 -58t-25 -67v-358q0 -77 -9 -134.5t-33 -115.5t-73.5 -103t-124.5 -75z" />
<glyph unicode="~" horiz-adv-x="1128" d="M143 410h101q15 42 52.5 73t86.5 31q30 0 61 -15t59 -36t59 -42.5t73.5 -36.5t89.5 -15q86 0 164 71t96 183h-98q-46 -93 -135 -93q-46 0 -87.5 19.5t-69.5 43t-75.5 43t-103.5 19.5q-98 0 -172 -68.5t-101 -176.5z" />
<glyph unicode="&#xa1;" horiz-adv-x="532" d="M106 909q0 58 41.5 100t98.5 42t98 -42t41 -100q0 -57 -41 -98t-98 -41t-98.5 41t-41.5 98zM113 -106q0 69 25 173t51.5 240.5t29.5 278.5h94q2 -112 19 -223t36.5 -183t35.5 -150.5t16 -135.5q0 -75 -46 -121.5t-108 -46.5t-107.5 46.5t-45.5 121.5z" />
<glyph unicode="&#xa2;" horiz-adv-x="1021" d="M61 520q0 123 42.5 224t113.5 165t159.5 98.5t182.5 34.5q27 0 41 -2l41 164h94l-45 -176q122 -28 196 -98t75 -162q0 -46 -32 -78.5t-95 -32.5q-59 0 -91.5 31.5t-29.5 77.5q7 123 -45 168l-203 -803q60 -70 141 -70q95 0 147.5 41t69.5 103q9 26 33 26h51q24 0 33 -18 t-4 -41q-114 -192 -354 -192q-82 0 -152 20l-31 -125h-94l39 156q-129 62 -206 186t-77 303zM360 526q0 -161 39 -274l181 709q-110 -3 -165 -118.5t-55 -316.5z" />
<glyph unicode="&#xa3;" horiz-adv-x="1120" d="M61 170q0 71 49.5 118.5t127.5 47.5q28 0 55 -8.5t42.5 -17.5t39.5 -25.5t33 -22.5q16 40 16 100q0 71 -66 162h-258v84h189q-44 54 -70 92.5t-49 102t-23 129.5q0 166 126 269.5t343 103.5q202 0 320.5 -110t118.5 -280q0 -79 -40.5 -130.5t-107.5 -51.5q-61 0 -96 31.5 t-35 77.5q0 27 12.5 63t12.5 70q0 118 -47 181t-138 63q-87 0 -139.5 -64.5t-52.5 -181.5q0 -35 3.5 -67.5t11.5 -63.5t14.5 -52.5t21 -51.5t21 -43.5t24.5 -45.5t23 -41h231v-84h-194q26 -70 26 -143q0 -95 -47 -166q61 -37 152 -37q79 0 155.5 39.5t122.5 122.5h80 q-24 -103 -64 -173.5t-91 -105t-100 -48t-107 -13.5q-149 0 -254 68q-88 -68 -195 -68q-77 0 -137 46t-60 124zM166 141q0 -37 28 -61.5t62 -24.5q77 0 111 64q-74 67 -98 79q-20 11 -38 11q-27 0 -46 -18.5t-19 -49.5z" />
<glyph unicode="&#xa4;" horiz-adv-x="1222" d="M125 70l143 141q-84 114 -84 256q0 136 80 250l-139 139l94 96l141 -141q113 82 248 82q139 0 252 -82l144 141l94 -96l-142 -141q80 -114 80 -248q0 -140 -84 -254l146 -143l-94 -95l-146 144q-118 -80 -250 -80q-135 0 -246 78l-143 -142zM324 467q0 -122 83 -210.5 t203 -88.5q119 0 205 89t86 210q0 120 -85.5 207.5t-205.5 87.5t-203 -87t-83 -208z" />
<glyph unicode="&#xa5;" horiz-adv-x="1316" d="M31 1194v78q296 -9 592 0v-78q-80 -6 -105 -27.5t-6 -54.5l254 -475l235 455q26 50 -8 72.5t-112 29.5v78q203 -9 405 0v-78q-76 -6 -116.5 -28.5t-67.5 -75.5l-244 -469h197v-103h-250l-2 -6v-59h252v-103h-252v-196q0 -38 32.5 -54t118.5 -22v-78q-296 9 -592 0v78 q86 6 119 22t33 54v196h-250v103h250v53l-6 12h-244v103h187l-271 491q-11 19 -14 24t-15.5 19t-25.5 19t-37 11.5t-57 8.5z" />
<glyph unicode="&#xa6;" horiz-adv-x="542" d="M184 274h174v-714h-174v714zM184 924v714h174v-714h-174z" />
<glyph unicode="&#xa8;" horiz-adv-x="999" d="M102 1288q0 54 40 92.5t94 38.5t92.5 -38.5t38.5 -92.5t-38.5 -93.5t-92.5 -39.5t-94 39.5t-40 93.5zM580 1288q0 54 39.5 92.5t93.5 38.5t92.5 -38.5t38.5 -92.5t-38.5 -93.5t-92.5 -39.5t-93.5 39.5t-39.5 93.5z" />
<glyph unicode="&#xa9;" horiz-adv-x="1574" d="M102 643q0 152 53 283t145 221t219 141t272 51t271 -51t216.5 -141.5t142.5 -220.5t52 -283t-52 -283t-142.5 -220.5t-216.5 -141.5t-271 -51t-272 51t-219 141t-145 221t-53 283zM223 643q0 -174 74 -311t203 -212t291 -75q244 0 402.5 167t158.5 431t-158.5 431 t-402.5 167q-162 0 -291 -75t-203 -212t-74 -311zM422 649q0 170 104.5 277.5t259.5 107.5q50 0 109 -13t94 -13q29 0 62 6q24 -127 55 -209h-119q-35 82 -90 130t-123 48q-82 0 -126 -76.5t-44 -220.5q0 -101 21 -185t68 -140t112 -56q70 0 121.5 43t99.5 123h104 q-62 -102 -77 -201q-37 9 -60 9q-34 0 -85 -13.5t-103 -13.5q-178 0 -280.5 107.5t-102.5 289.5z" />
<glyph unicode="&#xaa;" horiz-adv-x="733" d="M61 825q0 31 9.5 57t35 52t66.5 46.5t108 39t156 31.5v8q0 32 -2.5 55t-9.5 49t-23 40t-41 14q-48 0 -68.5 -19.5t-27.5 -77.5q-3 -25 -31 -40t-63 -15q-36 0 -56 19t-20 51q0 70 79 110.5t179 40.5q131 0 189.5 -56.5t58.5 -168.5v-256q0 -31 12 -31q4 0 11 3t22 10 t27 12v-94q-58 -25 -81 -31t-50 -6q-29 0 -52.5 22.5t-35.5 59.5q-65 -82 -183 -82q-85 0 -147 41t-62 116zM111 430v123h510v-123h-510zM231 827q0 -69 70 -69q27 0 48.5 9t38.5 29t25 33t23 39v109q-68 -12 -112 -29.5t-62.5 -39.5t-24.5 -40t-6 -41z" />
<glyph unicode="&#xab;" horiz-adv-x="755" d="M72 469q196 174 311 356v-161l-119 -193l119 -197v-161q-115 182 -311 356zM393 469q198 176 312 356v-161l-119 -193l119 -197v-161q-114 180 -312 356z" />
<glyph unicode="&#xac;" horiz-adv-x="1185" d="M143 618v162h899v-487h-161v325h-738z" />
<glyph unicode="&#xad;" horiz-adv-x="778" d="M72 438v150h553v-150h-553z" />
<glyph unicode="&#xae;" horiz-adv-x="1574" d="M102 643q0 152 53 283t145 221t219 141t272 51t271 -51t216.5 -141.5t142.5 -220.5t52 -283t-52 -283t-142.5 -220.5t-216.5 -141.5t-271 -51t-272 51t-219 141t-145 221t-53 283zM223 643q0 -174 74 -311t203 -212t291 -75q244 0 402.5 167t158.5 431t-158.5 431 t-402.5 167q-162 0 -291 -75t-203 -212t-74 -311zM451 283v45q48 3 67 12.5t19 30.5v532q0 23 -16 36t-60 17v43h293q125 0 199.5 -26t102 -68t27.5 -106q0 -157 -188 -199l160 -213q23 -31 45 -43.5t57 -15.5l-4 -45h-235q-3 53 -35 100l-150 199h-35v-211 q0 -21 17.5 -30.5t58.5 -12.5v-45h-323zM698 627h33q100 0 148.5 46t48.5 128q0 151 -142 151h-88v-325z" />
<glyph unicode="&#xaf;" horiz-adv-x="866" d="M102 1266v86q0 34 41 34h580q41 0 41 -34v-86q0 -35 -41 -35h-580q-41 0 -41 35z" />
<glyph unicode="&#xb0;" horiz-adv-x="624" d="M82 1063q0 100 67.5 167.5t163.5 67.5t163 -67.5t67 -167.5t-67 -168t-163 -68t-163.5 68t-67.5 168zM211 1063q0 -56 27 -93.5t73 -37.5q48 0 74.5 37t26.5 94t-26.5 94t-74.5 37q-46 0 -73 -37.5t-27 -93.5z" />
<glyph unicode="&#xb1;" horiz-adv-x="1044" d="M143 29v102h717v-102h-717zM143 694v103h308v307h102v-307h307v-103h-307v-307h-102v307h-308z" />
<glyph unicode="&#xb2;" horiz-adv-x="626" d="M92 793q10 50 32.5 92.5t54 74.5t58 52t60.5 41q94 57 94 114q0 32 -21.5 53t-52.5 21q-61 0 -73 -45q-5 -20 1 -43.5t3 -34.5q-14 -31 -47.5 -35.5t-61.5 13t-28 43.5q0 74 52.5 124t151.5 50q93 0 142 -42t49 -114q0 -34 -12.5 -61.5t-42.5 -52.5t-44.5 -35t-54.5 -33 q-51 -29 -68.5 -44t-25.5 -44h154q32 0 43 16l18 27h62l-21 -109q-6 -28 -43 -28h-379z" />
<glyph unicode="&#xb3;" horiz-adv-x="659" d="M123 946q0 23 14 37t41 14q25 0 38.5 -9.5t16.5 -20t5.5 -30t5.5 -28.5q20 -57 88 -57q42 0 70 31.5t26 68.5q1 43 -19 62.5t-49.5 17t-66.5 -19.5l-31 61l49 23q74 26 74 90q0 59 -66 59q-39 0 -54 -38t-3 -79l-98 13q-25 9 -25 28q-2 64 48.5 105t140.5 41 q89 0 139.5 -39.5t50.5 -85.5q0 -61 -61 -88q45 -14 72.5 -49t27.5 -86q0 -78 -62 -130.5t-161 -52.5q-97 0 -154 48.5t-57 113.5z" />
<glyph unicode="&#xb4;" horiz-adv-x="657" d="M102 1194l29 -45l346 127q53 20 71.5 65.5t-7.5 83.5t-70 38.5t-88 -36.5z" />
<glyph unicode="&#xb5;" horiz-adv-x="1263" d="M31 930v80l338 24q25 2 41 -11t16 -40v-629q0 -64 3.5 -104.5t15 -80t37 -58.5t65.5 -19q37 0 74 21.5t63.5 50t52 67t38 62t22.5 45.5v528q0 36 -14 51.5t-44 14.5l-61 -2v80l338 24q25 2 41 -11t16 -40v-737q0 -55 32.5 -72t96.5 -6v-76q-85 -21 -162.5 -52.5 t-120.5 -51t-61 -19.5q-33 0 -49.5 22.5t-11.5 61.5l20 168q-19 -32 -35.5 -55.5t-51.5 -64t-70 -66.5t-87.5 -46t-107.5 -20q-99 0 -166 37q9 -59 26 -104.5t35 -70.5t35 -43t27 -32t8 -28q-11 -73 -78 -114t-129.5 -18t-62.5 107v514q-10 58 -10 117v532q0 36 -14 51.5 t-44 14.5z" />
<glyph unicode="&#xb6;" horiz-adv-x="1359" d="M43 881q0 180 138 285.5t360 105.5h727v-90q-47 -9 -69.5 -22.5t-22.5 -45.5v-1065q0 -36 19 -53.5t73 -24.5v-108h-811v108q73 7 97 24t24 54v440h-37q-221 0 -359.5 106.5t-138.5 285.5zM297 881q0 -59 11.5 -109.5t37.5 -95.5t75 -70.5t116 -25.5h41v589h-41 q-68 0 -116.5 -23.5t-74.5 -65t-37.5 -90.5t-11.5 -109zM803 49q0 -36 16.5 -51.5t57.5 -15.5t57 15.5t16 51.5v1063q0 35 -10.5 46t-36.5 11h-100v-1120z" />
<glyph unicode="&#xb7;" horiz-adv-x="483" d="M82 604q0 57 41 98t98 41t98 -41t41 -98q0 -58 -41 -99.5t-98 -41.5t-98 41.5t-41 99.5z" />
<glyph unicode="&#xb8;" horiz-adv-x="677" d="M102 -285q0 29 19.5 48.5t50.5 19.5q33 0 49.5 -15t20.5 -36.5t8.5 -42.5t23 -36t54.5 -15q86 0 86 90t-148 129q-43 12 -43 39q0 11 5 21t21.5 37.5t29.5 49.5h79l-22 -65q239 -73 239 -191q0 -50 -37.5 -87t-93 -54t-118.5 -17q-97 0 -160.5 32t-63.5 93z" />
<glyph unicode="&#xb9;" horiz-adv-x="405" d="M82 1180v80l115 51q28 11 53.5 -1t23.5 -30v-373q0 -21 16 -28t44 -9v-67h-248v67q18 1 29 3.5t20.5 11t9.5 22.5v293z" />
<glyph unicode="&#xba;" horiz-adv-x="729" d="M61 971q0 140 91 225.5t213 87.5q122 -2 212.5 -86t90.5 -217q0 -137 -90.5 -224t-212.5 -87q-120 0 -212 85.5t-92 215.5zM111 430v123h510v-123h-510zM227 995q0 -111 45.5 -183.5t108.5 -72.5q121 0 121 217q0 112 -44.5 185t-103.5 73q-127 0 -127 -219z" />
<glyph unicode="&#xbb;" horiz-adv-x="755" d="M51 113v161l119 197l-119 193v161q115 -182 311 -356q-196 -174 -311 -356zM373 113v161l119 197l-119 193v161q115 -182 311 -356q-196 -174 -311 -356z" />
<glyph unicode="&#xbc;" horiz-adv-x="1386" d="M82 1180v80l115 51q28 11 53.5 -1t23.5 -30v-373q0 -21 16 -28t44 -9v-67h-248v67q18 1 29 3.5t20.5 11t9.5 22.5v293zM88 -10l885 1313h160l-885 -1313h-160zM887 133v78l246 291q19 22 52.5 13.5t33.5 -32.5v-268h65v-82h-65v-61q0 -37 51 -37v-47h-234v47q49 0 49 37 v61h-198zM987 215h98v117z" />
<glyph unicode="&#xbd;" d="M82 1180v80l115 51q28 11 53.5 -1t23.5 -30v-373q0 -21 16 -28t44 -9v-67h-248v67q18 1 29 3.5t20.5 11t9.5 22.5v293zM88 -10l885 1313h160l-885 -1313h-160zM866 -12q10 50 32.5 92.5t54 74.5t58 52t60.5 41q94 57 94 114q0 32 -21 53t-52 21q-62 0 -74 -45 q-5 -20 1 -43.5t3 -34.5q-14 -31 -47.5 -35.5t-61.5 13t-28 43.5q0 74 53 124t152 50q93 0 141.5 -42t48.5 -114q0 -34 -12.5 -61.5t-42.5 -52.5t-44.5 -35t-54.5 -33q-51 -29 -68.5 -44t-25.5 -44h154q32 0 43 16l18 27h62l-21 -109q-6 -28 -43 -28h-379z" />
<glyph unicode="&#xbe;" horiz-adv-x="1568" d="M123 946q0 23 14 37t41 14q25 0 38.5 -9.5t16.5 -20t5.5 -30t5.5 -28.5q20 -57 88 -57q42 0 70 31.5t26 68.5q1 43 -19 62.5t-49.5 17t-66.5 -19.5l-31 61l49 23q74 26 74 90q0 59 -66 59q-39 0 -54 -38t-3 -79l-98 13q-25 9 -25 28q-2 64 48.5 105t140.5 41 q89 0 139.5 -39.5t50.5 -85.5q0 -61 -61 -88q45 -14 72.5 -49t27.5 -86q0 -78 -62 -130.5t-161 -52.5q-97 0 -154 48.5t-57 113.5zM256 -10l885 1313h159l-884 -1313h-160zM1014 133v78l246 291q19 22 52.5 13.5t33.5 -32.5v-268h65v-82h-65v-61q0 -37 51 -37v-47h-234v47 q49 0 49 37v61h-198zM1114 215h98v117z" />
<glyph unicode="&#xbf;" horiz-adv-x="1032" d="M72 84q0 60 21 110.5t56 87t77 69t85.5 65.5t81.5 68t65.5 84t35.5 106h88q11 -70 -8.5 -131.5t-55.5 -110.5t-74 -98.5t-66 -117t-28 -144.5q0 -127 46.5 -193.5t131.5 -66.5q87 0 133 62.5t46 180.5q0 37 -12.5 70.5t-12.5 60.5q0 48 36.5 79.5t98.5 31.5 q65 0 104.5 -51.5t39.5 -128.5q0 -171 -118 -281t-317 -110q-213 0 -333.5 101t-120.5 257zM412 909q0 58 41 100t98 42t98 -42t41 -100q0 -57 -41 -98t-98 -41t-98 41t-41 98z" />
<glyph unicode="&#xc0;" d="M20 0v78q107 8 157 37.5t75 99.5l360 1067h168l385 -1022q27 -70 48.5 -104t60.5 -53.5t106 -24.5v-78q-310 9 -620 0v78q97 6 128 27t9 79l-92 248h-383l-82 -248q-19 -57 31.5 -78t171.5 -28v-78q-261 9 -523 0zM451 514h323l-172 459zM479.5 1587.5 q-18.5 45.5 7.5 83.5t70 38.5t88 -36.5l281 -233l-29 -45l-346 127q-53 20 -71.5 65.5z" />
<glyph unicode="&#xc1;" d="M20 0v78q107 8 157 37.5t75 99.5l360 1067h168l385 -1022q27 -70 48.5 -104t60.5 -53.5t106 -24.5v-78q-310 9 -620 0v78q97 6 128 27t9 79l-92 248h-383l-82 -248q-19 -57 31.5 -78t171.5 -28v-78q-261 9 -523 0zM451 514h323l-172 459zM475 1440l281 233 q44 37 87.5 36.5t69.5 -38.5t8 -83.5t-71 -65.5l-346 -127z" />
<glyph unicode="&#xc2;" d="M20 0v78q107 8 157 37.5t75 99.5l360 1067h168l385 -1022q27 -70 48.5 -104t60.5 -53.5t106 -24.5v-78q-310 9 -620 0v78q97 6 128 27t9 79l-92 248h-383l-82 -248q-19 -57 31.5 -78t171.5 -28v-78q-261 9 -523 0zM344 1395q182 115 356 311q173 -195 357 -311h-162 l-197 118l-192 -118h-162zM451 514h323l-172 459z" />
<glyph unicode="&#xc3;" d="M20 0v78q107 8 157 37.5t75 99.5l360 1067h168l385 -1022q27 -70 48.5 -104t60.5 -53.5t106 -24.5v-78q-310 9 -620 0v78q97 6 128 27t9 79l-92 248h-383l-82 -248q-19 -57 31.5 -78t171.5 -28v-78q-261 9 -523 0zM324 1456q-31 104 27.5 172t164.5 68q59 0 119 -18.5 t101.5 -40t90.5 -40t88 -18.5q41 0 61 25.5t15 52.5h84q34 -112 -27 -179t-157 -67q-58 0 -119 20t-103.5 43.5t-94.5 43.5t-95 20q-46 0 -65 -28t-11 -54h-79zM451 514h323l-172 459z" />
<glyph unicode="&#xc4;" d="M20 0v78q107 8 157 37.5t75 99.5l360 1067h168l385 -1022q27 -70 48.5 -104t60.5 -53.5t106 -24.5v-78q-310 9 -620 0v78q97 6 128 27t9 79l-92 248h-383l-82 -248q-19 -57 31.5 -78t171.5 -28v-78q-261 9 -523 0zM330 1534q0 54 39.5 92.5t93.5 38.5t92.5 -38.5 t38.5 -92.5t-38.5 -93.5t-92.5 -39.5t-93.5 39.5t-39.5 93.5zM451 514h323l-172 459zM807 1534q0 54 39.5 92.5t93.5 38.5t92.5 -38.5t38.5 -92.5t-38.5 -93.5t-92.5 -39.5t-93.5 39.5t-39.5 93.5z" />
<glyph unicode="&#xc5;" d="M20 0v78q107 8 157 37.5t75 99.5l360 1067h168l385 -1022q27 -70 48.5 -104t60.5 -53.5t106 -24.5v-78q-310 9 -620 0v78q97 6 128 27t9 79l-92 248h-383l-82 -248q-19 -57 31.5 -78t171.5 -28v-78q-261 9 -523 0zM451 514h323l-172 459zM516 1653q0 75 53 128.5 t131 53.5t131.5 -53.5t53.5 -128.5t-53.5 -129t-131.5 -54t-131 54t-53 129zM627 1653q0 -33 20.5 -55.5t52.5 -22.5t53 22.5t21 55.5t-21 55.5t-53 22.5t-52.5 -22.5t-20.5 -55.5z" />
<glyph unicode="&#xc6;" horiz-adv-x="2029" d="M20 0v78q52 4 90 14t68 30t49 39.5t47 53.5l791 967q-35 9 -94 12v78h895q20 0 26 -6.5t9 -30.5l32 -244h-88l-24 43q-49 85 -92 117.5t-125 32.5h-166q-14 0 -22.5 -9t-8.5 -22v-455h209q73 0 104 28.5t45 96.5h70q-14 -171 0 -342h-70q-15 69 -45.5 99t-103.5 30h-209 v-489q0 -13 8.5 -22t22.5 -9h110q115 0 171.5 27t92.5 102l66 137h90q-62 -180 -65 -356q-477 12 -932 0v78q85 6 116 22t31 54v278h-553l-203 -248q-59 -71 97 -97q36 -6 84 -9v-78q-261 9 -523 0zM633 514h485v594z" />
<glyph unicode="&#xc7;" horiz-adv-x="1277" d="M72 647q0 146 47.5 270.5t128.5 208.5t189.5 131.5t230.5 47.5q84 0 180 -24t149 -24q40 0 97 13q19 -185 94 -357h-150q-140 304 -381 304q-129 0 -204.5 -133t-75.5 -375q0 -170 37.5 -316t115 -241t179.5 -95q49 0 92.5 15t76 37.5t67.5 63.5t60 77.5t62 95.5h170 q-113 -206 -133 -342q-57 12 -105 12q-61 0 -142 -23.5t-161 -23.5h-30l-11 -30q43 -13 76 -26.5t75 -36.5t65.5 -56t23.5 -72q0 -73 -75.5 -115.5t-174.5 -42.5q-97 0 -160 32t-63 93q0 29 19.5 48.5t50.5 19.5q33 0 49.5 -15t20.5 -36.5t8.5 -42.5t22.5 -36t54 -15 q86 0 86 90q0 91 -147 129q-43 12 -43 39q0 5 1.5 10.5t5.5 13.5t7.5 13.5t12 20t14.5 23.5q-236 34 -374 209.5t-138 460.5z" />
<glyph unicode="&#xc8;" horiz-adv-x="1110" d="M51 0v78q85 6 116.5 22t31.5 54v966q0 38 -31 53t-117 21v78h895q20 0 26 -6.5t9 -30.5l33 -244h-88l-25 43q-49 85 -92 117.5t-125 32.5h-166q-14 0 -22.5 -9t-8.5 -22v-455h209q73 0 104.5 28.5t45.5 96.5h69q-14 -171 0 -342h-69q-15 69 -46 99t-104 30h-209v-489 q0 -13 8.5 -22t22.5 -9h111q115 0 171.5 27t92.5 102l65 137h91q-63 -183 -66 -356q-477 12 -932 0zM334.5 1587.5q-18.5 45.5 7.5 83.5t70 38.5t88 -36.5l280 -233l-28 -45l-346 127q-53 20 -71.5 65.5z" />
<glyph unicode="&#xc9;" horiz-adv-x="1110" d="M51 0v78q85 6 116.5 22t31.5 54v966q0 38 -31 53t-117 21v78h895q20 0 26 -6.5t9 -30.5l33 -244h-88l-25 43q-49 85 -92 117.5t-125 32.5h-166q-14 0 -22.5 -9t-8.5 -22v-455h209q73 0 104.5 28.5t45.5 96.5h69q-14 -171 0 -342h-69q-15 69 -46 99t-104 30h-209v-489 q0 -13 8.5 -22t22.5 -9h111q115 0 171.5 27t92.5 102l65 137h91q-63 -183 -66 -356q-477 12 -932 0zM330 1440l280 233q44 37 88 36.5t70 -38.5t8 -83.5t-71 -65.5l-347 -127z" />
<glyph unicode="&#xca;" horiz-adv-x="1110" d="M51 0v78q85 6 116.5 22t31.5 54v966q0 38 -31 53t-117 21v78h895q20 0 26 -6.5t9 -30.5l33 -244h-88l-25 43q-49 85 -92 117.5t-125 32.5h-166q-14 0 -22.5 -9t-8.5 -22v-455h209q73 0 104.5 28.5t45.5 96.5h69q-14 -171 0 -342h-69q-15 69 -46 99t-104 30h-209v-489 q0 -13 8.5 -22t22.5 -9h111q115 0 171.5 27t92.5 102l65 137h91q-63 -183 -66 -356q-477 12 -932 0zM199 1395q182 115 356 311q174 -196 356 -311h-161l-197 118l-193 -118h-161z" />
<glyph unicode="&#xcb;" horiz-adv-x="1110" d="M51 0v78q85 6 116.5 22t31.5 54v966q0 38 -31 53t-117 21v78h895q20 0 26 -6.5t9 -30.5l33 -244h-88l-25 43q-49 85 -92 117.5t-125 32.5h-166q-14 0 -22.5 -9t-8.5 -22v-455h209q73 0 104.5 28.5t45.5 96.5h69q-14 -171 0 -342h-69q-15 69 -46 99t-104 30h-209v-489 q0 -13 8.5 -22t22.5 -9h111q115 0 171.5 27t92.5 102l65 137h91q-63 -183 -66 -356q-477 12 -932 0zM184 1534q0 54 39.5 92.5t93.5 38.5t93 -38.5t39 -92.5t-39 -93.5t-93 -39.5t-93.5 39.5t-39.5 93.5zM662 1534q0 54 39.5 92.5t93.5 38.5t92.5 -38.5t38.5 -92.5 t-38.5 -93.5t-92.5 -39.5t-93.5 39.5t-39.5 93.5z" />
<glyph unicode="&#xcc;" horiz-adv-x="694" d="M51 0v78q86 6 119 22t33 54v964q0 38 -33 54t-119 22v78q296 -9 592 0v-78q-86 -6 -118.5 -22t-32.5 -54v-964q0 -38 32.5 -54t118.5 -22v-78q-296 9 -592 0zM127.5 1587.5q18.5 -45.5 71.5 -65.5l346 -127l28 45l-280 233q-44 37 -88 36.5t-70 -38.5t-7.5 -83.5z" />
<glyph unicode="&#xcd;" horiz-adv-x="694" d="M51 0v78q86 6 119 22t33 54v964q0 38 -33 54t-119 22v78q296 -9 592 0v-78q-86 -6 -118.5 -22t-32.5 -54v-964q0 -38 32.5 -54t118.5 -22v-78q-296 9 -592 0zM123 1440l29 -45l346 127q53 20 71 65.5t-8 83.5t-70 38.5t-88 -36.5z" />
<glyph unicode="&#xce;" horiz-adv-x="694" d="M-8 1395q182 115 356 311q173 -195 357 -311h-162l-197 118l-192 -118h-162zM51 0v78q86 6 119 22t33 54v964q0 38 -33 54t-119 22v78q296 -9 592 0v-78q-86 -6 -118.5 -22t-32.5 -54v-964q0 -38 32.5 -54t118.5 -22v-78q-296 9 -592 0z" />
<glyph unicode="&#xcf;" horiz-adv-x="694" d="M-23 1534q0 54 40 92.5t94 38.5t92.5 -38.5t38.5 -92.5t-38.5 -93.5t-92.5 -39.5t-94 39.5t-40 93.5zM51 0v78q86 6 119 22t33 54v964q0 38 -33 54t-119 22v78q296 -9 592 0v-78q-86 -6 -118.5 -22t-32.5 -54v-964q0 -38 32.5 -54t118.5 -22v-78q-296 9 -592 0zM455 1534 q0 54 39.5 92.5t93.5 38.5t92.5 -38.5t38.5 -92.5t-38.5 -93.5t-92.5 -39.5t-93.5 39.5t-39.5 93.5z" />
<glyph unicode="&#xd0;" horiz-adv-x="1357" d="M51 0v80q84 19 116 38t32 60v402h-148v112h148v404q0 50 -30 71t-106 27v78q88 -4 175.5 -4t189.5 2t162 2q155 0 277.5 -35.5t215.5 -109.5t143 -198t50 -292q0 -110 -22.5 -202.5t-59.5 -156.5t-87 -114.5t-101.5 -80.5t-106.5 -49.5t-98.5 -26.5t-81.5 -7 q-55 0 -174.5 17.5t-194.5 17.5q-42 0 -87 -4t-66.5 -7t-78 -12.5t-67.5 -11.5zM487 160q0 -24 12.5 -40t37.5 -24t49.5 -10.5t62.5 -3.5q82 -1 142.5 39.5t96 117.5t52 177t16.5 227q0 259 -93 403t-277 144q-54 0 -99 -4v-494h152v-112h-152v-420z" />
<glyph unicode="&#xd1;" horiz-adv-x="1355" d="M31 0v78q99 9 150.5 25t51.5 51v938q0 37 -50 66.5t-132 35.5v78q221 -9 443 0l532 -778v624q0 35 -55 51.5t-168 24.5v78q276 -9 522 0v-78q-100 -9 -152.5 -25t-52.5 -51v-1118h-88l-704 1020v-866q0 -35 56 -51t169 -25v-78q-276 9 -522 0zM301 1456q-31 104 28 172 t165 68q59 0 119 -18.5t101.5 -40t90.5 -40t88 -18.5q41 0 61 25.5t15 52.5h84q34 -112 -27.5 -179t-157.5 -67q-58 0 -118.5 20t-103 43.5t-94.5 43.5t-95 20q-46 0 -65 -28t-11 -54h-80z" />
<glyph unicode="&#xd2;" horiz-adv-x="1341" d="M72 645q0 186 77 337t214.5 237t308.5 86q169 0 306 -85.5t214.5 -237t77.5 -339.5q0 -142 -45.5 -267.5t-124.5 -214.5t-189.5 -140.5t-236.5 -51.5q-130 0 -241.5 48.5t-191 135.5t-124.5 214t-45 278zM377 698q0 -183 39 -328.5t113 -229t171 -83.5q125 0 195 125.5 t70 392.5q0 184 -39.5 329.5t-114 229t-172.5 83.5q-122 0 -192 -129t-70 -390zM451 1587.5q18 -45.5 71 -65.5l346 -127l29 45l-281 233q-44 37 -87.5 36.5t-69.5 -38.5t-8 -83.5z" />
<glyph unicode="&#xd3;" horiz-adv-x="1341" d="M72 645q0 186 77 337t214.5 237t308.5 86q169 0 306 -85.5t214.5 -237t77.5 -339.5q0 -142 -45.5 -267.5t-124.5 -214.5t-189.5 -140.5t-236.5 -51.5q-130 0 -241.5 48.5t-191 135.5t-124.5 214t-45 278zM377 698q0 -183 39 -328.5t113 -229t171 -83.5q125 0 195 125.5 t70 392.5q0 184 -39.5 329.5t-114 229t-172.5 83.5q-122 0 -192 -129t-70 -390zM446 1440l29 -45l346 127q53 20 71.5 65.5t-7.5 83.5t-70 38.5t-88 -36.5z" />
<glyph unicode="&#xd4;" horiz-adv-x="1341" d="M72 645q0 186 77 337t214.5 237t308.5 86q169 0 306 -85.5t214.5 -237t77.5 -339.5q0 -142 -45.5 -267.5t-124.5 -214.5t-189.5 -140.5t-236.5 -51.5q-130 0 -241.5 48.5t-191 135.5t-124.5 214t-45 278zM315 1395q184 116 357 311q174 -196 356 -311h-162l-196 118 l-193 -118h-162zM377 698q0 -183 39 -328.5t113 -229t171 -83.5q125 0 195 125.5t70 392.5q0 184 -39.5 329.5t-114 229t-172.5 83.5q-122 0 -192 -129t-70 -390z" />
<glyph unicode="&#xd5;" horiz-adv-x="1341" d="M72 645q0 186 77 337t214.5 237t308.5 86q169 0 306 -85.5t214.5 -237t77.5 -339.5q0 -142 -45.5 -267.5t-124.5 -214.5t-189.5 -140.5t-236.5 -51.5q-130 0 -241.5 48.5t-191 135.5t-124.5 214t-45 278zM295 1456q-31 104 27.5 172t164.5 68q59 0 119 -18.5t101.5 -40 t91 -40t88.5 -18.5q41 0 61 25.5t15 52.5h84q34 -112 -27.5 -179t-157.5 -67q-58 0 -118.5 20t-103 43.5t-94.5 43.5t-95 20q-46 0 -65 -28t-11 -54h-80zM377 698q0 -183 39 -328.5t113 -229t171 -83.5q125 0 195 125.5t70 392.5q0 184 -39.5 329.5t-114 229t-172.5 83.5 q-122 0 -192 -129t-70 -390z" />
<glyph unicode="&#xd6;" horiz-adv-x="1341" d="M72 645q0 186 77 337t214.5 237t308.5 86q169 0 306 -85.5t214.5 -237t77.5 -339.5q0 -142 -45.5 -267.5t-124.5 -214.5t-189.5 -140.5t-236.5 -51.5q-130 0 -241.5 48.5t-191 135.5t-124.5 214t-45 278zM301 1534q0 54 39.5 92.5t93.5 38.5t92.5 -38.5t38.5 -92.5 t-38.5 -93.5t-92.5 -39.5t-93.5 39.5t-39.5 93.5zM377 698q0 -183 39 -328.5t113 -229t171 -83.5q125 0 195 125.5t70 392.5q0 184 -39.5 329.5t-114 229t-172.5 83.5q-122 0 -192 -129t-70 -390zM778 1534q0 54 39.5 92.5t93.5 38.5t92.5 -38.5t38.5 -92.5t-38.5 -93.5 t-92.5 -39.5t-93.5 39.5t-39.5 93.5z" />
<glyph unicode="&#xd7;" horiz-adv-x="950" d="M143 297l217 219l-217 217l115 115l217 -217l217 217l115 -115l-217 -217l217 -219l-115 -115l-217 217l-217 -217z" />
<glyph unicode="&#xd8;" horiz-adv-x="1341" d="M72 645q0 186 77 337t214.5 237t308.5 86q178 0 329 -101l76 101l123 -99l-84 -110q154 -188 154 -453q0 -142 -45.5 -267.5t-124.5 -214.5t-189.5 -140.5t-236.5 -51.5q-186 0 -334 99l-74 -99l-123 99l80 106q-151 184 -151 471zM377 698q0 -147 29 -282l468 620 q-42 86 -102.5 133.5t-132.5 47.5q-122 0 -192 -129t-70 -390zM467 236q92 -179 233 -179q125 0 195 125.5t70 392.5q0 146 -29 281z" />
<glyph unicode="&#xd9;" horiz-adv-x="1470" d="M31 1194v78q297 -9 594 0v-78q-86 -6 -119 -22t-33 -54v-729q0 -152 53 -234.5t160 -82.5q190 0 313 264v782q0 38 -32.5 54t-118.5 22v78q296 -9 592 0v-78q-86 -6 -119 -22t-33 -54v-964q0 -38 33 -54t119 -22v-78q-275 8 -471 0v78q30 23 30 76v69 q-127 -243 -387 -243q-204 0 -317 110.5t-113 296.5v731q0 38 -32.5 54t-118.5 22zM537 1587.5q-18 45.5 8 83.5t69.5 38.5t87.5 -36.5l281 -233l-29 -45l-346 127q-53 20 -71 65.5z" />
<glyph unicode="&#xda;" horiz-adv-x="1470" d="M31 1194v78q297 -9 594 0v-78q-86 -6 -119 -22t-33 -54v-729q0 -152 53 -234.5t160 -82.5q190 0 313 264v782q0 38 -32.5 54t-118.5 22v78q296 -9 592 0v-78q-86 -6 -119 -22t-33 -54v-964q0 -38 33 -54t119 -22v-78q-275 8 -471 0v78q30 23 30 76v69 q-127 -243 -387 -243q-204 0 -317 110.5t-113 296.5v731q0 38 -32.5 54t-118.5 22zM532 1440l281 233q44 37 88 36.5t70 -38.5t7.5 -83.5t-71.5 -65.5l-346 -127z" />
<glyph unicode="&#xdb;" horiz-adv-x="1470" d="M31 1194v78q297 -9 594 0v-78q-86 -6 -119 -22t-33 -54v-729q0 -152 53 -234.5t160 -82.5q190 0 313 264v782q0 38 -32.5 54t-118.5 22v78q296 -9 592 0v-78q-86 -6 -119 -22t-33 -54v-964q0 -38 33 -54t119 -22v-78q-275 8 -471 0v78q30 23 30 76v69 q-127 -243 -387 -243q-204 0 -317 110.5t-113 296.5v731q0 38 -32.5 54t-118.5 22zM401 1395q184 116 357 311q174 -196 356 -311h-162l-196 118l-193 -118h-162z" />
<glyph unicode="&#xdc;" horiz-adv-x="1470" d="M31 1194v78q297 -9 594 0v-78q-86 -6 -119 -22t-33 -54v-729q0 -152 53 -234.5t160 -82.5q190 0 313 264v782q0 38 -32.5 54t-118.5 22v78q296 -9 592 0v-78q-86 -6 -119 -22t-33 -54v-964q0 -38 33 -54t119 -22v-78q-275 8 -471 0v78q30 23 30 76v69 q-127 -243 -387 -243q-204 0 -317 110.5t-113 296.5v731q0 38 -32.5 54t-118.5 22zM387 1534q0 54 39.5 92.5t93.5 38.5t92.5 -38.5t38.5 -92.5t-38.5 -93.5t-92.5 -39.5t-93.5 39.5t-39.5 93.5zM864 1534q0 54 39.5 92.5t93.5 38.5t92.5 -38.5t38.5 -92.5t-38.5 -93.5 t-92.5 -39.5t-93.5 39.5t-39.5 93.5z" />
<glyph unicode="&#xdd;" horiz-adv-x="1316" d="M31 1194v78q296 -9 592 0v-78q-80 -6 -105 -27.5t-6 -54.5l254 -475l235 455q26 50 -8 72.5t-112 29.5v78q203 -9 405 0v-78q-76 -6 -116.5 -28.5t-67.5 -75.5l-299 -578v-358q0 -38 32.5 -54t118.5 -22v-78q-296 9 -592 0v78q86 6 119 22t33 54v352l-334 606 q-11 19 -14 24t-15.5 19t-25.5 19t-37 11.5t-57 8.5zM434 1440l281 233q44 37 87.5 36.5t69.5 -38.5t8 -83.5t-71 -65.5l-346 -127z" />
<glyph unicode="&#xde;" horiz-adv-x="1183" d="M51 0v78q86 6 119 22t33 54v964q0 38 -33 54t-119 22v78q296 -9 592 0v-78q-86 -6 -118.5 -22t-32.5 -54v-92h96q252 0 403.5 -103t151.5 -284q0 -179 -151.5 -282t-403.5 -103h-96v-100q0 -38 32.5 -54t118.5 -22v-78q-296 9 -592 0zM492 342h104q140 0 205 81.5 t65 215.5q0 136 -65 217.5t-205 81.5h-104v-596z" />
<glyph unicode="&#xdf;" horiz-adv-x="1243" d="M31 0v78q86 6 116.5 21t30.5 53v751q0 183 105 276t338 93q121 0 208 -26.5t135 -73.5t69.5 -102.5t21.5 -123.5q0 -83 -49.5 -146.5t-153.5 -97.5q176 -29 258 -113t82 -227q0 -180 -141.5 -271t-413.5 -91h-41v82h37q128 0 197 67t69 205q0 129 -78.5 201t-220.5 72 q-43 -4 -78.5 -11.5t-54.5 -9.5v-418q0 -82 -53 -135t-135 -53h-248zM467 690l45 6q72 10 120 25.5t82.5 43.5t50 71t15.5 106q0 114 -39 181t-120 67q-154 0 -154 -268v-232z" />
<glyph unicode="&#xe0;" horiz-adv-x="1097" d="M51 236q0 102 55 174.5t190 131.5t366 107l-3 125q-2 112 -22 155.5t-74 43.5q-56 0 -93.5 -17.5t-55 -45.5t-28.5 -61.5t-19.5 -67t-21.5 -61.5t-42 -45.5t-74 -17.5q-58 0 -87 29.5t-29 79.5q0 116 134.5 197t330.5 81q90 0 152 -12.5t111.5 -44t73 -90.5t23.5 -149 v-492q0 -55 32.5 -72t96.5 -6v-86q-85 -21 -161.5 -52.5t-119.5 -51t-63 -19.5q-67 0 -61 76l12 156q-91 -230 -316 -230q-82 0 -149.5 27t-112.5 88.5t-45 149.5zM328 1341.5q18 -45.5 71 -65.5l346 -127l29 45l-280 233q-44 37 -88 36.5t-70 -38.5t-8 -83.5zM332 258 q0 -73 35 -118.5t96 -45.5q42 0 78.5 25t60.5 63t38.5 73.5t21.5 66.5v256q-330 -69 -330 -320z" />
<glyph unicode="&#xe1;" horiz-adv-x="1097" d="M51 236q0 102 55 174.5t190 131.5t366 107l-3 125q-2 112 -22 155.5t-74 43.5q-56 0 -93.5 -17.5t-55 -45.5t-28.5 -61.5t-19.5 -67t-21.5 -61.5t-42 -45.5t-74 -17.5q-58 0 -87 29.5t-29 79.5q0 116 134.5 197t330.5 81q90 0 152 -12.5t111.5 -44t73 -90.5t23.5 -149 v-492q0 -55 32.5 -72t96.5 -6v-86q-85 -21 -161.5 -52.5t-119.5 -51t-63 -19.5q-67 0 -61 76l12 156q-91 -230 -316 -230q-82 0 -149.5 27t-112.5 88.5t-45 149.5zM324 1194l28 -45l346 127q53 20 71.5 65.5t-7.5 83.5t-70 38.5t-88 -36.5zM332 258q0 -73 35 -118.5 t96 -45.5q42 0 78.5 25t60.5 63t38.5 73.5t21.5 66.5v256q-330 -69 -330 -320z" />
<glyph unicode="&#xe2;" horiz-adv-x="1097" d="M51 236q0 102 55 174.5t190 131.5t366 107l-3 125q-2 112 -22 155.5t-74 43.5q-56 0 -93.5 -17.5t-55 -45.5t-28.5 -61.5t-19.5 -67t-21.5 -61.5t-42 -45.5t-74 -17.5q-58 0 -87 29.5t-29 79.5q0 116 134.5 197t330.5 81q90 0 152 -12.5t111.5 -44t73 -90.5t23.5 -149 v-492q0 -55 32.5 -72t96.5 -6v-86q-85 -21 -161.5 -52.5t-119.5 -51t-63 -19.5q-67 0 -61 76l12 156q-91 -230 -316 -230q-82 0 -149.5 27t-112.5 88.5t-45 149.5zM193 1149q182 115 356 311q174 -196 356 -311h-162l-196 119l-193 -119h-161zM332 258q0 -73 35 -118.5 t96 -45.5q42 0 78.5 25t60.5 63t38.5 73.5t21.5 66.5v256q-330 -69 -330 -320z" />
<glyph unicode="&#xe3;" horiz-adv-x="1097" d="M51 236q0 102 55 174.5t190 131.5t366 107l-3 125q-2 112 -22 155.5t-74 43.5q-56 0 -93.5 -17.5t-55 -45.5t-28.5 -61.5t-19.5 -67t-21.5 -61.5t-42 -45.5t-74 -17.5q-58 0 -87 29.5t-29 79.5q0 116 134.5 197t330.5 81q90 0 152 -12.5t111.5 -44t73 -90.5t23.5 -149 v-492q0 -55 32.5 -72t96.5 -6v-86q-85 -21 -161.5 -52.5t-119.5 -51t-63 -19.5q-67 0 -61 76l12 156q-91 -230 -316 -230q-82 0 -149.5 27t-112.5 88.5t-45 149.5zM172 1210q-31 104 28 172t165 68q59 0 119 -18.5t101.5 -40t90.5 -40t88 -18.5q41 0 61 25.5t15 52.5h84 q34 -112 -27.5 -179t-157.5 -67q-58 0 -118.5 20t-103 43.5t-94.5 43.5t-95 20q-46 0 -65 -28t-11 -54h-80zM332 258q0 -73 35 -118.5t96 -45.5q42 0 78.5 25t60.5 63t38.5 73.5t21.5 66.5v256q-330 -69 -330 -320z" />
<glyph unicode="&#xe4;" horiz-adv-x="1097" d="M51 236q0 102 55 174.5t190 131.5t366 107l-3 125q-2 112 -22 155.5t-74 43.5q-56 0 -93.5 -17.5t-55 -45.5t-28.5 -61.5t-19.5 -67t-21.5 -61.5t-42 -45.5t-74 -17.5q-58 0 -87 29.5t-29 79.5q0 116 134.5 197t330.5 81q90 0 152 -12.5t111.5 -44t73 -90.5t23.5 -149 v-492q0 -55 32.5 -72t96.5 -6v-86q-85 -21 -161.5 -52.5t-119.5 -51t-63 -19.5q-67 0 -61 76l12 156q-91 -230 -316 -230q-82 0 -149.5 27t-112.5 88.5t-45 149.5zM178 1288q0 54 39.5 92.5t93.5 38.5t92.5 -38.5t38.5 -92.5t-38.5 -93.5t-92.5 -39.5t-93.5 39.5t-39.5 93.5 zM332 258q0 -73 35 -118.5t96 -45.5q42 0 78.5 25t60.5 63t38.5 73.5t21.5 66.5v256q-330 -69 -330 -320zM655 1288q0 54 39.5 92.5t93.5 38.5t93 -38.5t39 -92.5t-39 -93.5t-93 -39.5t-93.5 39.5t-39.5 93.5z" />
<glyph unicode="&#xe5;" horiz-adv-x="1097" d="M51 236q0 102 55 174.5t190 131.5t366 107l-3 125q-2 112 -22 155.5t-74 43.5q-56 0 -93.5 -17.5t-55 -45.5t-28.5 -61.5t-19.5 -67t-21.5 -61.5t-42 -45.5t-74 -17.5q-58 0 -87 29.5t-29 79.5q0 116 134.5 197t330.5 81q90 0 152 -12.5t111.5 -44t73 -90.5t23.5 -149 v-492q0 -55 32.5 -72t96.5 -6v-86q-85 -21 -161.5 -52.5t-119.5 -51t-63 -19.5q-67 0 -61 76l12 156q-91 -230 -316 -230q-82 0 -149.5 27t-112.5 88.5t-45 149.5zM332 258q0 -73 35 -118.5t96 -45.5q42 0 78.5 25t60.5 63t38.5 73.5t21.5 66.5v256q-330 -69 -330 -320z M365 1407q0 75 53 128.5t131 53.5t131 -53.5t53 -128.5t-53 -128.5t-131 -53.5t-131 53.5t-53 128.5zM475 1407q0 -33 21 -55.5t53 -22.5t53 22.5t21 55.5t-21 55.5t-53 22.5t-53 -22.5t-21 -55.5z" />
<glyph unicode="&#xe6;" horiz-adv-x="1640" d="M51 236q0 102 55 174.5t190 131.5t366 107l-3 125q-2 113 -20.5 155t-71.5 42q-78 0 -120.5 -32.5t-56.5 -78.5t-25.5 -92t-43 -78.5t-92.5 -32.5q-58 0 -87 29.5t-29 79.5q0 116 134.5 197t330.5 81q110 0 183 -19t116 -69q121 86 268 86q185 0 309.5 -119.5 t124.5 -297.5q0 -146 -127 -146h-500q1 -70 9 -129.5t26.5 -113.5t47.5 -92t73 -60.5t100 -22.5q85 0 135.5 36t86.5 104q15 30 43 30h36q21 0 29 -16.5t-4 -38.5q-53 -98 -138 -147t-218 -49q-153 0 -275 73q-32 -15 -74.5 -39t-65.5 -34.5t-40 -10.5q-67 0 -61 76l12 156 q-91 -230 -316 -230q-82 0 -149.5 27t-112.5 88.5t-45 149.5zM332 258q0 -73 35 -118.5t96 -45.5q42 0 78.5 25t60.5 63t38.5 73.5t21.5 66.5v260q-86 -18 -150 -50t-97.5 -65.5t-53 -76t-24.5 -71.5t-5 -61zM952 573h359q0 193 -38 290.5t-130 97.5q-191 0 -191 -388z" />
<glyph unicode="&#xe7;" horiz-adv-x="1021" d="M61 520q0 123 42.5 224t113.5 165t159.5 98.5t182.5 34.5q172 0 286 -79t116 -195q0 -46 -32 -78.5t-95 -32.5q-59 0 -91.5 31.5t-29.5 77.5q12 195 -127 195q-113 0 -169.5 -115.5t-56.5 -319.5q0 -129 26 -232t83 -168t137 -65q95 0 147.5 41t69.5 103q9 26 33 26h51 q24 0 33 -18t-4 -41q-114 -192 -354 -192h-7l-14 -41q43 -13 76 -26.5t75 -36.5t65.5 -56t23.5 -72q0 -73 -75.5 -115.5t-174.5 -42.5q-97 0 -160 32t-63 93q0 29 19 48.5t50 19.5q33 0 49.5 -15t20.5 -36.5t8.5 -42.5t23 -36t54.5 -15q86 0 86 90q0 91 -147 129 q-43 12 -43 39q0 4 0.5 8t3 9.5t4.5 10t6.5 12.5t8 13t10.5 17t12 20q-89 14 -166 54.5t-137.5 105t-95 161t-34.5 213.5z" />
<glyph unicode="&#xe8;" horiz-adv-x="1040" d="M61 518q0 123 43 225t113 166t155 98.5t173 34.5q185 0 309.5 -119.5t124.5 -297.5q0 -146 -127 -146h-500q1 -70 9 -129.5t26.5 -113.5t47.5 -92t73 -60.5t100 -22.5q85 0 135 36t86 104q15 30 43 30h37q21 0 29 -16.5t-4 -38.5q-53 -98 -138 -147t-218 -49 q-103 0 -195 35t-164.5 101t-115 170t-42.5 232zM318 1341.5q18 -45.5 71 -65.5l346 -127l29 45l-281 233q-44 37 -87.5 36.5t-69.5 -38.5t-8 -83.5zM352 573h359q0 193 -38 290.5t-130 97.5q-191 0 -191 -388z" />
<glyph unicode="&#xe9;" horiz-adv-x="1040" d="M61 518q0 123 43 225t113 166t155 98.5t173 34.5q185 0 309.5 -119.5t124.5 -297.5q0 -146 -127 -146h-500q1 -70 9 -129.5t26.5 -113.5t47.5 -92t73 -60.5t100 -22.5q85 0 135 36t86 104q15 30 43 30h37q21 0 29 -16.5t-4 -38.5q-53 -98 -138 -147t-218 -49 q-103 0 -195 35t-164.5 101t-115 170t-42.5 232zM313 1194l29 -45l346 127q53 20 71.5 65.5t-7.5 83.5t-70 38.5t-88 -36.5zM352 573h359q0 193 -38 290.5t-130 97.5q-191 0 -191 -388z" />
<glyph unicode="&#xea;" horiz-adv-x="1040" d="M61 518q0 123 43 225t113 166t155 98.5t173 34.5q185 0 309.5 -119.5t124.5 -297.5q0 -146 -127 -146h-500q1 -70 9 -129.5t26.5 -113.5t47.5 -92t73 -60.5t100 -22.5q85 0 135 36t86 104q15 30 43 30h37q21 0 29 -16.5t-4 -38.5q-53 -98 -138 -147t-218 -49 q-103 0 -195 35t-164.5 101t-115 170t-42.5 232zM182 1149q184 116 357 311q174 -196 356 -311h-162l-196 119l-193 -119h-162zM352 573h359q0 193 -38 290.5t-130 97.5q-191 0 -191 -388z" />
<glyph unicode="&#xeb;" horiz-adv-x="1040" d="M61 518q0 123 43 225t113 166t155 98.5t173 34.5q185 0 309.5 -119.5t124.5 -297.5q0 -146 -127 -146h-500q1 -70 9 -129.5t26.5 -113.5t47.5 -92t73 -60.5t100 -22.5q85 0 135 36t86 104q15 30 43 30h37q21 0 29 -16.5t-4 -38.5q-53 -98 -138 -147t-218 -49 q-103 0 -195 35t-164.5 101t-115 170t-42.5 232zM168 1288q0 54 39.5 92.5t93.5 38.5t92.5 -38.5t38.5 -92.5t-38.5 -93.5t-92.5 -39.5t-93.5 39.5t-39.5 93.5zM352 573h359q0 193 -38 290.5t-130 97.5q-191 0 -191 -388zM645 1288q0 54 39.5 92.5t93.5 38.5t92.5 -38.5 t38.5 -92.5t-38.5 -93.5t-92.5 -39.5t-93.5 39.5t-39.5 93.5z" />
<glyph unicode="&#xec;" horiz-adv-x="614" d="M41 856v78q90 15 166.5 45t121.5 52t68 22q60 0 60 -66q0 -33 -6.5 -123.5t-6.5 -161.5v-548q0 -36 33.5 -52.5t95.5 -23.5v-78q-265 9 -530 0v78q60 7 92.5 24t32.5 52v616q0 54 -32 72.5t-95 13.5zM86.5 1341.5q18.5 -45.5 71.5 -65.5l346 -127l28 45l-280 233 q-44 37 -88 36.5t-70 -38.5t-7.5 -83.5z" />
<glyph unicode="&#xed;" horiz-adv-x="614" d="M41 856v78q90 15 166.5 45t121.5 52t68 22q60 0 60 -66q0 -33 -6.5 -123.5t-6.5 -161.5v-548q0 -36 33.5 -52.5t95.5 -23.5v-78q-265 9 -530 0v78q60 7 92.5 24t32.5 52v616q0 54 -32 72.5t-95 13.5zM82 1194l29 -45l346 127q53 20 71 65.5t-8 83.5t-70 38.5t-88 -36.5z " />
<glyph unicode="&#xee;" horiz-adv-x="614" d="M-49 1149q182 115 356 311q173 -195 357 -311h-162l-197 119l-192 -119h-162zM41 856v78q90 15 166.5 45t121.5 52t68 22q60 0 60 -66q0 -33 -6.5 -123.5t-6.5 -161.5v-548q0 -36 33.5 -52.5t95.5 -23.5v-78q-265 9 -530 0v78q60 7 92.5 24t32.5 52v616q0 54 -32 72.5 t-95 13.5z" />
<glyph unicode="&#xef;" horiz-adv-x="614" d="M-63 1288q0 54 39.5 92.5t93.5 38.5t92.5 -38.5t38.5 -92.5t-38.5 -93.5t-92.5 -39.5t-93.5 39.5t-39.5 93.5zM41 856v78q90 15 166.5 45t121.5 52t68 22q60 0 60 -66q0 -33 -6.5 -123.5t-6.5 -161.5v-548q0 -36 33.5 -52.5t95.5 -23.5v-78q-265 9 -530 0v78 q60 7 92.5 24t32.5 52v616q0 54 -32 72.5t-95 13.5zM414 1288q0 54 39.5 92.5t93.5 38.5t92.5 -38.5t38.5 -92.5t-38.5 -93.5t-92.5 -39.5t-93.5 39.5t-39.5 93.5z" />
<glyph unicode="&#xf0;" horiz-adv-x="1216" d="M61 526q0 119 41 219.5t106.5 163.5t144 98t157.5 35q167 0 260 -141v166q0 46 -10 88l-260 -72v76l219 60q-56 47 -219 12v78q188 49 306.5 47t172.5 -66l160 43v-76l-123 -32q31 -77 31 -232v-735q0 -55 32.5 -72t96.5 -6v-88q-85 -21 -162 -52.5t-120 -51t-63 -19.5 q-34 0 -50 21t-11 59l12 96q-11 -33 -30 -61.5t-49.5 -56t-79 -43t-109.5 -15.5q-63 0 -126 21.5t-122 67.5t-104.5 110.5t-73 157t-27.5 200.5zM358 602q0 -246 63 -395.5t169 -149.5q73 0 120.5 64.5t59.5 154.5v533q-37 60 -97 104.5t-126 44.5q-189 0 -189 -356z" />
<glyph unicode="&#xf1;" horiz-adv-x="1241" d="M31 0v78q61 7 94 24t33 52v608q0 54 -32.5 72t-94.5 8v78q87 18 163 51.5t119.5 57.5t63.5 24q32 0 47 -20.5t10 -57.5l-18 -164q152 233 358 233q51 0 93.5 -9t83.5 -33.5t68.5 -63.5t44.5 -102.5t17 -147.5v-534q0 -36 33.5 -52.5t95.5 -23.5v-78q-266 9 -532 0v78 q127 11 127 76v524q0 48 -2 81.5t-9 66.5t-19.5 52.5t-33.5 31.5t-51 12q-45 0 -91 -26.5t-79 -64.5t-55 -70t-31 -54v-553q0 -66 129 -76v-78q-266 9 -532 0zM244 1210q-31 104 27.5 172t164.5 68q59 0 119 -18.5t101.5 -40t91 -40t88.5 -18.5q41 0 60.5 25.5t14.5 52.5h84 q34 -112 -27 -179t-157 -67q-58 0 -119 20t-103.5 43.5t-94.5 43.5t-95 20q-46 0 -64.5 -28t-10.5 -54h-80z" />
<glyph unicode="&#xf2;" horiz-adv-x="1116" d="M61 506q0 108 29.5 198.5t78.5 152t113.5 104t134 62t140.5 19.5t141 -19.5t135 -61.5t114 -101.5t78.5 -147t29.5 -190.5q0 -106 -29.5 -196t-78.5 -152.5t-113.5 -107t-134 -65.5t-140.5 -21t-141.5 21t-134.5 64.5t-113.5 104.5t-79 148t-29.5 188zM338.5 1341.5 q18.5 -45.5 71.5 -65.5l346 -127l28 45l-280 233q-44 37 -88 36.5t-70 -38.5t-7.5 -83.5zM358 573q0 -231 62 -371.5t166 -140.5q172 0 172 390q0 232 -62 371t-166 139q-85 0 -128.5 -99.5t-43.5 -288.5z" />
<glyph unicode="&#xf3;" horiz-adv-x="1116" d="M61 506q0 108 29.5 198.5t78.5 152t113.5 104t134 62t140.5 19.5t141 -19.5t135 -61.5t114 -101.5t78.5 -147t29.5 -190.5q0 -106 -29.5 -196t-78.5 -152.5t-113.5 -107t-134 -65.5t-140.5 -21t-141.5 21t-134.5 64.5t-113.5 104.5t-79 148t-29.5 188zM334 1194l28 -45 l347 127q53 20 71 65.5t-8 83.5t-70 38.5t-88 -36.5zM358 573q0 -231 62 -371.5t166 -140.5q172 0 172 390q0 232 -62 371t-166 139q-85 0 -128.5 -99.5t-43.5 -288.5z" />
<glyph unicode="&#xf4;" horiz-adv-x="1116" d="M61 506q0 108 29.5 198.5t78.5 152t113.5 104t134 62t140.5 19.5t141 -19.5t135 -61.5t114 -101.5t78.5 -147t29.5 -190.5q0 -106 -29.5 -196t-78.5 -152.5t-113.5 -107t-134 -65.5t-140.5 -21t-141.5 21t-134.5 64.5t-113.5 104.5t-79 148t-29.5 188zM203 1149 q182 115 356 311q174 -196 356 -311h-161l-197 119l-192 -119h-162zM358 573q0 -231 62 -371.5t166 -140.5q172 0 172 390q0 232 -62 371t-166 139q-85 0 -128.5 -99.5t-43.5 -288.5z" />
<glyph unicode="&#xf5;" horiz-adv-x="1116" d="M61 506q0 108 29.5 198.5t78.5 152t113.5 104t134 62t140.5 19.5t141 -19.5t135 -61.5t114 -101.5t78.5 -147t29.5 -190.5q0 -106 -29.5 -196t-78.5 -152.5t-113.5 -107t-134 -65.5t-140.5 -21t-141.5 21t-134.5 64.5t-113.5 104.5t-79 148t-29.5 188zM182 1210 q-31 104 28 172t165 68q59 0 119 -18.5t101.5 -40t90.5 -40t88 -18.5q41 0 61 25.5t15 52.5h84q34 -112 -27 -179t-157 -67q-58 0 -119 20t-103.5 43.5t-94.5 43.5t-95 20q-46 0 -65 -28t-11 -54h-80zM358 573q0 -231 62 -371.5t166 -140.5q172 0 172 390q0 232 -62 371 t-166 139q-85 0 -128.5 -99.5t-43.5 -288.5z" />
<glyph unicode="&#xf6;" horiz-adv-x="1116" d="M61 506q0 108 29.5 198.5t78.5 152t113.5 104t134 62t140.5 19.5t141 -19.5t135 -61.5t114 -101.5t78.5 -147t29.5 -190.5q0 -106 -29.5 -196t-78.5 -152.5t-113.5 -107t-134 -65.5t-140.5 -21t-141.5 21t-134.5 64.5t-113.5 104.5t-79 148t-29.5 188zM188 1288 q0 54 40 92.5t94 38.5t92.5 -38.5t38.5 -92.5t-38.5 -93.5t-92.5 -39.5t-94 39.5t-40 93.5zM358 573q0 -231 62 -371.5t166 -140.5q172 0 172 390q0 232 -62 371t-166 139q-85 0 -128.5 -99.5t-43.5 -288.5zM666 1288q0 54 39.5 92.5t93.5 38.5t92.5 -38.5t38.5 -92.5 t-38.5 -93.5t-92.5 -39.5t-93.5 39.5t-39.5 93.5z" />
<glyph unicode="&#xf7;" horiz-adv-x="1044" d="M143 481v103h717v-103h-717zM408 203q0 48 34.5 82t83.5 34q47 0 82 -34.5t35 -81.5q0 -49 -34.5 -84t-82.5 -35q-49 0 -83.5 34.5t-34.5 84.5zM408 829q0 48 34.5 82.5t83.5 34.5q47 0 82 -35t35 -82q0 -49 -34.5 -83.5t-82.5 -34.5q-50 0 -84 34.5t-34 83.5z" />
<glyph unicode="&#xf8;" horiz-adv-x="1116" d="M61 506q0 108 29.5 198.5t78.5 152t113.5 104t134 62t140.5 19.5q144 0 260 -71l66 86l123 -99l-68 -88q117 -136 117 -348q0 -106 -29.5 -196t-78.5 -152.5t-113.5 -107t-134 -65.5t-140.5 -21q-129 0 -244 65l-57 -76l-123 99l58 75q-132 142 -132 363zM358 573 q0 -99 13 -192l329 434q-65 146 -170 146q-85 0 -128.5 -99.5t-43.5 -288.5zM426 190q61 -129 160 -129q172 0 172 390q0 82 -10 167z" />
<glyph unicode="&#xf9;" horiz-adv-x="1243" d="M31 930v80l338 24q25 2 41 -11t16 -40v-629q0 -64 3.5 -104.5t15 -80t37 -58.5t65.5 -19q37 0 74 21.5t63.5 50t52 67t38 62t22.5 45.5v528q0 36 -14 51.5t-44 14.5l-61 -2v80l338 24q25 2 41 -11t16 -40v-737q0 -55 32.5 -72t96.5 -6v-76q-85 -21 -162.5 -52.5 t-120.5 -51t-61 -19.5q-33 0 -49.5 22.5t-11.5 61.5l20 168q-19 -32 -35.5 -55.5t-51.5 -64t-70 -66.5t-87.5 -46t-107.5 -20q-65 0 -117.5 17t-99 56.5t-72.5 113.5t-26 178v532q0 36 -14 51.5t-44 14.5zM402 1341.5q18 -45.5 71 -65.5l346 -127l29 45l-281 233 q-44 37 -87.5 36.5t-69.5 -38.5t-8 -83.5z" />
<glyph unicode="&#xfa;" horiz-adv-x="1243" d="M31 930v80l338 24q25 2 41 -11t16 -40v-629q0 -64 3.5 -104.5t15 -80t37 -58.5t65.5 -19q37 0 74 21.5t63.5 50t52 67t38 62t22.5 45.5v528q0 36 -14 51.5t-44 14.5l-61 -2v80l338 24q25 2 41 -11t16 -40v-737q0 -55 32.5 -72t96.5 -6v-76q-85 -21 -162.5 -52.5 t-120.5 -51t-61 -19.5q-33 0 -49.5 22.5t-11.5 61.5l20 168q-19 -32 -35.5 -55.5t-51.5 -64t-70 -66.5t-87.5 -46t-107.5 -20q-65 0 -117.5 17t-99 56.5t-72.5 113.5t-26 178v532q0 36 -14 51.5t-44 14.5zM397 1194l29 -45l346 127q53 20 71.5 65.5t-7.5 83.5t-70 38.5 t-88 -36.5z" />
<glyph unicode="&#xfb;" horiz-adv-x="1243" d="M31 930v80l338 24q25 2 41 -11t16 -40v-629q0 -64 3.5 -104.5t15 -80t37 -58.5t65.5 -19q37 0 74 21.5t63.5 50t52 67t38 62t22.5 45.5v528q0 36 -14 51.5t-44 14.5l-61 -2v80l338 24q25 2 41 -11t16 -40v-737q0 -55 32.5 -72t96.5 -6v-76q-85 -21 -162.5 -52.5 t-120.5 -51t-61 -19.5q-33 0 -49.5 22.5t-11.5 61.5l20 168q-19 -32 -35.5 -55.5t-51.5 -64t-70 -66.5t-87.5 -46t-107.5 -20q-65 0 -117.5 17t-99 56.5t-72.5 113.5t-26 178v532q0 36 -14 51.5t-44 14.5zM266 1149q184 116 357 311q174 -196 356 -311h-162l-196 119 l-193 -119h-162z" />
<glyph unicode="&#xfc;" horiz-adv-x="1243" d="M31 930v80l338 24q25 2 41 -11t16 -40v-629q0 -64 3.5 -104.5t15 -80t37 -58.5t65.5 -19q37 0 74 21.5t63.5 50t52 67t38 62t22.5 45.5v528q0 36 -14 51.5t-44 14.5l-61 -2v80l338 24q25 2 41 -11t16 -40v-737q0 -55 32.5 -72t96.5 -6v-76q-85 -21 -162.5 -52.5 t-120.5 -51t-61 -19.5q-33 0 -49.5 22.5t-11.5 61.5l20 168q-19 -32 -35.5 -55.5t-51.5 -64t-70 -66.5t-87.5 -46t-107.5 -20q-65 0 -117.5 17t-99 56.5t-72.5 113.5t-26 178v532q0 36 -14 51.5t-44 14.5zM252 1288q0 54 39.5 92.5t93.5 38.5t92.5 -38.5t38.5 -92.5 t-38.5 -93.5t-92.5 -39.5t-93.5 39.5t-39.5 93.5zM729 1288q0 54 39.5 92.5t93.5 38.5t92.5 -38.5t38.5 -92.5t-38.5 -93.5t-92.5 -39.5t-93.5 39.5t-39.5 93.5z" />
<glyph unicode="&#xfd;" horiz-adv-x="1189" d="M31 948v78q268 -9 524 0v-78l-61 -6q-32 -3 -46.5 -28t-1.5 -56l244 -553l211 553q12 32 -10 56.5t-62 27.5l-67 6v78q176 -8 397 0v-78l-61 -6q-76 -8 -103 -84l-491 -1266q-8 -23 -22.5 -32t-51.5 -9q-46 0 -62.5 10t-5.5 31q5 10 31.5 59.5t50.5 95t50.5 97t42.5 87 t16 44.5q0 22 -58.5 157.5t-181 405t-145.5 320.5q-33 79 -76 84zM371 1194l28 -45l346 127q53 20 71.5 65.5t-7.5 83.5t-70 38.5t-88 -36.5z" />
<glyph unicode="&#xfe;" horiz-adv-x="1200" d="M31 1139v78q87 18 163 51.5t119.5 57.5t63.5 24q31 0 44 -17t13 -53v-352q106 114 275 114q75 0 151 -35.5t141.5 -101.5t106.5 -174t41 -239q0 -96 -29.5 -181t-78 -146t-111 -106t-130 -67.5t-132.5 -22.5q-135 0 -234 103v-217q0 -55 35.5 -71t112.5 -7v-84 q-95 -17 -189.5 -51.5t-154 -59t-88.5 -24.5q-50 0 -50 41q0 16 9 30.5t20 28t20 54t9 102.5v1245q0 54 -32.5 72t-94.5 8zM434 293q14 -98 84 -171t152 -73q52 0 88 27t56 79t29 118t9 155q0 242 -59 384t-160 142q-107 0 -199 -114v-547z" />
<glyph unicode="&#xff;" horiz-adv-x="1189" d="M31 948v78q268 -9 524 0v-78l-61 -6q-32 -3 -46.5 -28t-1.5 -56l244 -553l211 553q12 32 -10 56.5t-62 27.5l-67 6v78q176 -8 397 0v-78l-61 -6q-76 -8 -103 -84l-491 -1266q-8 -23 -22.5 -32t-51.5 -9q-46 0 -62.5 10t-5.5 31q5 10 31.5 59.5t50.5 95t50.5 97t42.5 87 t16 44.5q0 22 -58.5 157.5t-181 405t-145.5 320.5q-33 79 -76 84zM225 1288q0 54 39.5 92.5t93.5 38.5t92.5 -38.5t38.5 -92.5t-38.5 -93.5t-92.5 -39.5t-93.5 39.5t-39.5 93.5zM702 1288q0 54 40 92.5t94 38.5t92.5 -38.5t38.5 -92.5t-38.5 -93.5t-92.5 -39.5t-94 39.5 t-40 93.5z" />
<glyph unicode="&#x152;" horiz-adv-x="1937" d="M72 649q0 145 47.5 269t128.5 208.5t189.5 131.5t230.5 47q23 0 46 -1.5t38.5 -3.5t37 -6.5t31.5 -6.5t32 -8t28 -7h893q20 0 25.5 -6.5t8.5 -30.5l33 -244h-88l-24 43q-49 85 -92.5 117.5t-125.5 32.5h-165q-14 0 -22.5 -9t-8.5 -22v-455h209q73 0 104 28.5t45 96.5h70 q-14 -171 0 -342h-70q-15 69 -45.5 99t-103.5 30h-209v-489q0 -13 8.5 -22t22.5 -9h110q115 0 171.5 27t92.5 102l66 137h90q-63 -183 -66 -356q-474 12 -927 0q-4 -1 -20 -6t-23 -6.5t-22 -5.5t-26 -5.5t-27 -3.5t-33 -3t-36 -1q-288 0 -456 185t-168 495zM377 711 q0 -126 21.5 -242t61 -208.5t102.5 -148t140 -55.5q108 0 186 51.5t138 155.5v684q-50 133 -146 201t-223 68q-130 0 -205 -132.5t-75 -373.5z" />
<glyph unicode="&#x153;" horiz-adv-x="1742" d="M61 506q0 108 29.5 198.5t78.5 152t113.5 104t134 62t140.5 19.5q96 0 189 -35.5t163 -105.5q69 68 158 104.5t180 36.5q185 0 309.5 -119.5t124.5 -297.5q0 -146 -127 -146h-499q1 -70 9 -129.5t26.5 -113.5t47.5 -92t73 -60.5t100 -22.5q85 0 135 36t86 104 q15 30 43 30h37q21 0 28.5 -16.5t-4.5 -38.5q-53 -98 -138 -147t-218 -49q-107 0 -203.5 38t-167.5 111q-71 -73 -163.5 -111t-186.5 -38q-71 0 -141.5 21t-134.5 64.5t-113.5 104.5t-79 148t-29.5 188zM358 573q0 -231 62 -371.5t166 -140.5q172 0 172 390q0 232 -62 371 t-166 139q-85 0 -128.5 -99.5t-43.5 -288.5zM1055 573h358q0 193 -38 290.5t-130 97.5q-190 0 -190 -388z" />
<glyph unicode="&#x178;" horiz-adv-x="1316" d="M31 1194v78q296 -9 592 0v-78q-80 -6 -105 -27.5t-6 -54.5l254 -475l235 455q26 50 -8 72.5t-112 29.5v78q203 -9 405 0v-78q-76 -6 -116.5 -28.5t-67.5 -75.5l-299 -578v-358q0 -38 32.5 -54t118.5 -22v-78q-296 9 -592 0v78q86 6 119 22t33 54v352l-334 606 q-11 19 -14 24t-15.5 19t-25.5 19t-37 11.5t-57 8.5zM289 1534q0 54 39.5 92.5t93.5 38.5t92.5 -38.5t38.5 -92.5t-38.5 -93.5t-92.5 -39.5t-93.5 39.5t-39.5 93.5zM766 1534q0 54 39.5 92.5t93.5 38.5t92.5 -38.5t38.5 -92.5t-38.5 -93.5t-92.5 -39.5t-93.5 39.5 t-39.5 93.5z" />
<glyph unicode="&#x2c6;" horiz-adv-x="917" d="M102 1149q184 116 357 311q174 -196 356 -311h-162l-196 119l-193 -119h-162z" />
<glyph unicode="&#x2dc;" horiz-adv-x="995" d="M113 1210q-31 104 27.5 172t164.5 68q59 0 119 -18.5t101.5 -40t91 -40t88.5 -18.5q41 0 60.5 25.5t14.5 52.5h84q34 -112 -27 -179t-157 -67q-58 0 -119 20t-103.5 43.5t-94.5 43.5t-95 20q-46 0 -64.5 -28t-10.5 -54h-80z" />
<glyph unicode="&#x2000;" horiz-adv-x="917" />
<glyph unicode="&#x2001;" horiz-adv-x="1835" />
<glyph unicode="&#x2002;" horiz-adv-x="917" />
<glyph unicode="&#x2003;" horiz-adv-x="1835" />
<glyph unicode="&#x2004;" horiz-adv-x="611" />
<glyph unicode="&#x2005;" horiz-adv-x="458" />
<glyph unicode="&#x2006;" horiz-adv-x="305" />
<glyph unicode="&#x2007;" horiz-adv-x="305" />
<glyph unicode="&#x2008;" horiz-adv-x="229" />
<glyph unicode="&#x2009;" horiz-adv-x="367" />
<glyph unicode="&#x200a;" horiz-adv-x="101" />
<glyph unicode="&#x2010;" horiz-adv-x="696" d="M72 438v150h553v-150h-553z" />
<glyph unicode="&#x2011;" horiz-adv-x="696" d="M72 438v150h553v-150h-553z" />
<glyph unicode="&#x2012;" horiz-adv-x="696" d="M72 438v150h553v-150h-553z" />
<glyph unicode="&#x2013;" horiz-adv-x="1366" d="M61 438v150h1192v-150h-1192z" />
<glyph unicode="&#x2014;" horiz-adv-x="1820" d="M51 438v150h1678v-150h-1678z" />
<glyph unicode="&#x2018;" horiz-adv-x="403" d="M51 1020q0 90 38.5 170t96.5 137q22 21 41 2l21 -22q-74 -80 -74 -179q0 -14 4 -22q20 4 35 4q61 0 100 -41t39 -96q0 -62 -42 -103t-105 -41q-71 0 -112.5 55t-41.5 136z" />
<glyph unicode="&#x2019;" horiz-adv-x="403" d="M51 1221q0 61 42.5 102t105.5 41q71 0 112 -54.5t41 -135.5q0 -90 -38.5 -171t-96.5 -137q-21 -22 -41 -2l-20 23q73 79 73 178q0 14 -4 22q-20 -4 -35 -4q-61 0 -100 41.5t-39 96.5z" />
<glyph unicode="&#x201a;" horiz-adv-x="526" d="M113 115q0 61 42 102t105 41q71 0 112.5 -54.5t41.5 -135.5q0 -90 -38.5 -171t-96.5 -137q-21 -22 -41 -2l-21 23q74 80 74 178q0 15 -4 23q-25 -5 -35 -5q-61 0 -100 41.5t-39 96.5z" />
<glyph unicode="&#x201c;" horiz-adv-x="759" d="M51 1020q0 90 38.5 170t96.5 137q22 21 41 2l21 -22q-74 -80 -74 -179q0 -14 4 -22q20 4 35 4q61 0 100 -41t39 -96q0 -62 -42 -103t-105 -41q-71 0 -112.5 55t-41.5 136zM408 1020q0 90 38.5 170t96.5 137q21 21 41 2l20 -22q-74 -80 -74 -179q0 -12 5 -22q20 4 34 4 q61 0 100.5 -41t39.5 -96q0 -61 -42.5 -102.5t-105.5 -41.5q-71 0 -112 55t-41 136z" />
<glyph unicode="&#x201d;" horiz-adv-x="759" d="M113 1221q0 61 42 102t105 41q71 0 112.5 -54.5t41.5 -135.5q0 -90 -38.5 -171t-96.5 -137q-21 -22 -41 -2l-21 23q74 80 74 178q0 14 -4 22q-20 -4 -35 -4q-61 0 -100 41.5t-39 96.5zM469 1221q0 61 42 102t105 41q71 0 112.5 -54.5t41.5 -135.5q0 -90 -38.5 -171 t-96.5 -137q-21 -22 -41 -2l-21 23q74 80 74 178q0 14 -4 22q-20 -4 -35 -4q-61 0 -100 41.5t-39 96.5z" />
<glyph unicode="&#x201e;" horiz-adv-x="858" d="M113 115q0 61 42 102t105 41q71 0 112.5 -54.5t41.5 -135.5q0 -90 -38.5 -171t-96.5 -137q-21 -22 -41 -2l-21 23q74 80 74 178q0 15 -4 23q-25 -5 -35 -5q-61 0 -100 41.5t-39 96.5zM444 115q0 61 42.5 102t105.5 41q71 0 112 -54.5t41 -135.5q0 -90 -38.5 -171 t-96.5 -137q-22 -22 -41 -2l-20 23q74 80 74 178q0 13 -5 23q-25 -5 -34 -5q-61 0 -100.5 41.5t-39.5 96.5z" />
<glyph unicode="&#x2022;" horiz-adv-x="770" d="M123 598q0 109 76.5 185.5t185.5 76.5t185.5 -76.5t76.5 -185.5t-76.5 -185.5t-185.5 -76.5t-185.5 76.5t-76.5 185.5z" />
<glyph unicode="&#x2026;" horiz-adv-x="1302" d="M92 121q0 57 41 98t98 41t98.5 -41t41.5 -98q0 -58 -41.5 -99.5t-98.5 -41.5t-98 41.5t-41 99.5zM492 121q0 57 41 98t98 41t98 -41t41 -98q0 -58 -41 -99.5t-98 -41.5t-98 41.5t-41 99.5zM891 121q0 57 41 98t98 41t98 -41t41 -98q0 -58 -41 -99.5t-98 -41.5t-98 41.5 t-41 99.5z" />
<glyph unicode="&#x202f;" horiz-adv-x="367" />
<glyph unicode="&#x2039;" horiz-adv-x="434" d="M72 469q196 174 311 356v-161l-119 -193l119 -197v-161q-115 182 -311 356z" />
<glyph unicode="&#x203a;" horiz-adv-x="434" d="M51 113v161l119 197l-119 193v161q115 -182 311 -356q-196 -174 -311 -356z" />
<glyph unicode="&#x205f;" horiz-adv-x="458" />
<glyph unicode="&#x20ac;" horiz-adv-x="1523" d="M63 414l29 141h168q-4 62 -4 92q0 35 2 51h-145l28 142h138q53 214 210.5 339.5t362.5 125.5q84 0 180.5 -24t149.5 -24q39 0 96 13q19 -185 94 -357h-149q-140 304 -381 304q-110 0 -182.5 -98t-92.5 -279h414l-29 -142h-391q0 -49 8 -143h363l-29 -141h-309 q39 -161 116 -259t183 -98q49 0 92.5 15t76 37.5t67.5 63.5t60 77.5t62 95.5h170q-113 -206 -133 -342q-57 12 -104 12q-61 0 -142 -23.5t-161 -23.5q-225 0 -382.5 116t-213.5 329h-222z" />
<glyph unicode="&#x2122;" horiz-adv-x="1290" d="M41 1147l6 98q0 9 9.5 18t21.5 9h407q12 0 21.5 -9t9.5 -18l6 -98h-45l-16 33q-8 16 -27 16h-92v-317q0 -10 16.5 -15.5t36.5 -5.5v-51h-227v51q51 0 51 21v317h-90q-19 0 -27 -16l-16 -33h-45zM578 807v47q29 8 37 13.5t8 19.5v297q0 18 -8.5 24.5t-36.5 12.5v51h155 l187 -283l184 283h137v-49q-23 -8 -29 -14t-6 -25v-297q0 -16 6.5 -20.5t36.5 -12.5v-47h-200v47q29 8 37 13.5t8 19.5v225l-158 -256q-10 -23 -28.5 -23t-30.5 23l-177 258v-227q0 -7 2 -12t9 -8.5t12.5 -5.5t21.5 -7v-47h-167z" />
<glyph unicode="&#x25fc;" horiz-adv-x="1024" d="M0 0v1024h1024v-1024h-1024z" />
</font>
</defs>
</svg>
